<?xml version="1.0" encoding="utf-8"?>
<!-- Generator: Adobe Illustrator 25.3.0, SVG Export Plug-In . SVG Version: 6.00 Build 0)  -->
<svg version="1.1" xmlns="http://www.w3.org/2000/svg" xmlns:xlink="http://www.w3.org/1999/xlink" x="0px" y="0px"
	 viewBox="0 0 64 64" style="enable-background:new 0 0 64 64;" xml:space="preserve">
<style type="text/css">
	.st0{fill:#FAEFDE;}
	.st1{fill:#CDA1A7;}
	.st2{fill:url(#SVGID_1_);}
	.st3{fill:url(#SVGID_2_);}
	.st4{fill:url(#SVGID_3_);}
	.st5{fill:url(#SVGID_4_);}
	.st6{fill:url(#SVGID_5_);}
	.st7{fill:url(#SVGID_6_);}
	.st8{fill:url(#SVGID_7_);}
	.st9{fill:url(#SVGID_8_);}
	.st10{fill:url(#SVGID_9_);}
	.st11{fill:url(#SVGID_10_);}
</style>
<g id="background">
	<polyline class="st0" points="50,34 50,28 43.3,32 43.3,20 41,14 15,14 16,16.7 15.9,56 23,56 23,48 50,48.2 	"/>
</g>
<g id="front">
	<polyline class="st1" points="23,49.1 23,56 56,56 56,49.1 	"/>
</g>
<g id="Back">
	<polyline class="st1" points="6.9,20.6 8.3,14 14,14 14,20.6 	"/>
</g>
<g id="Layer_1">
	<g id="surface151872549">
		
			<linearGradient id="SVGID_1_" gradientUnits="userSpaceOnUse" x1="-1768.1184" y1="2739.209" x2="-1768.1184" y2="2884.4927" gradientTransform="matrix(-0.3721 0 0 0.3721 -625.8669 -1014.004)">
			<stop  offset="0" style="stop-color:#3A00B7"/>
			<stop  offset="1" style="stop-color:#54052D"/>
		</linearGradient>
		<path class="st2" d="M6,17v5h8v31c0,2.8,2.2,5,5,5h34c2.8,0,5-2.2,5-5v-5h-8V29h-2v19H22v5c0,1.7-1.3,3-3,3s-3-1.3-3-3V17
			c0-1.1-0.4-2.2-1-3h25.1c0,0.3-0.1,0.7-0.1,1c0,2.1,0.8,4.1,2,5.6v9.5c0,0.7,0.4,1.4,1.1,1.8s1.4,0.3,2.1-0.1l3.9-2.6l3.9,2.6
			c0.3,0.2,0.7,0.3,1.1,0.3c0.3,0,0.6-0.1,0.9-0.2c0.7-0.3,1.1-1,1.1-1.8v-9.5c1.2-1.5,2-3.5,2-5.6c0-5-4-9-9-9
			c-3.9,0-7.2,2.5-8.5,6H11C8.2,12,6,14.2,6,17z M44,30.1v-7.7c1.4,1,3.2,1.5,5,1.5s3.6-0.6,5-1.5v7.7l-3.9-2.6
			c-0.7-0.4-1.5-0.4-2.2,0L44,30.1z M42,15c0-3.9,3.1-7,7-7s7,3.1,7,7s-3.1,7-7,7S42,18.9,42,15z M23,56c0.6-0.8,1-1.9,1-3v-3h32v3
			c0,1.7-1.3,3-3,3H23z M8,17c0-1.7,1.3-3,3-3s3,1.3,3,3v3H8V17z"/>
		
			<linearGradient id="SVGID_2_" gradientUnits="userSpaceOnUse" x1="-1754.5469" y1="2739.209" x2="-1754.5469" y2="2884.4927" gradientTransform="matrix(-0.3721 0 0 0.3721 -625.8669 -1014.004)">
			<stop  offset="0" style="stop-color:#3A00B7"/>
			<stop  offset="1" style="stop-color:#54052D"/>
		</linearGradient>
		<path class="st3" d="M36,24H18v-2h18V24z"/>
		
			<linearGradient id="SVGID_3_" gradientUnits="userSpaceOnUse" x1="-1759.9218" y1="2739.209" x2="-1759.9218" y2="2884.4927" gradientTransform="matrix(-0.3721 0 0 0.3721 -625.8669 -1014.004)">
			<stop  offset="0" style="stop-color:#3A00B7"/>
			<stop  offset="1" style="stop-color:#54052D"/>
		</linearGradient>
		<path class="st4" d="M36,28H22v-2h14V28z"/>
		
			<linearGradient id="SVGID_4_" gradientUnits="userSpaceOnUse" x1="-1765.2966" y1="2739.209" x2="-1765.2966" y2="2884.4927" gradientTransform="matrix(-0.3721 0 0 0.3721 -625.8669 -1014.004)">
			<stop  offset="0" style="stop-color:#3A00B7"/>
			<stop  offset="1" style="stop-color:#54052D"/>
		</linearGradient>
		<path class="st5" d="M36,32H26v-2h10V32z"/>
		
			<linearGradient id="SVGID_5_" gradientUnits="userSpaceOnUse" x1="-1743.797" y1="2739.209" x2="-1743.797" y2="2884.4927" gradientTransform="matrix(-0.3721 0 0 0.3721 -625.8669 -1014.004)">
			<stop  offset="0" style="stop-color:#3A00B7"/>
			<stop  offset="1" style="stop-color:#54052D"/>
		</linearGradient>
		<path class="st6" d="M23,36c-2.2,0-4,1.8-4,4s1.8,4,4,4s4-1.8,4-4S25.2,36,23,36z M23,38c1.1,0,2,0.9,2,2s-0.9,2-2,2s-2-0.9-2-2
			S21.9,38,23,38z"/>
		
			<linearGradient id="SVGID_6_" gradientUnits="userSpaceOnUse" x1="-1770.6715" y1="2739.209" x2="-1770.6715" y2="2884.4927" gradientTransform="matrix(-0.3721 0 0 0.3721 -625.8669 -1014.004)">
			<stop  offset="0" style="stop-color:#3A00B7"/>
			<stop  offset="1" style="stop-color:#54052D"/>
		</linearGradient>
		<path class="st7" d="M34,42h-2v-4h2V42z"/>
		
			<linearGradient id="SVGID_7_" gradientUnits="userSpaceOnUse" x1="-1781.4214" y1="2739.209" x2="-1781.4214" y2="2884.4927" gradientTransform="matrix(-0.3721 0 0 0.3721 -625.8669 -1014.004)">
			<stop  offset="0" style="stop-color:#3A00B7"/>
			<stop  offset="1" style="stop-color:#54052D"/>
		</linearGradient>
		<path class="st8" d="M38,42h-2v-4h2V42z"/>
		
			<linearGradient id="SVGID_8_" gradientUnits="userSpaceOnUse" x1="-1792.1711" y1="2739.209" x2="-1792.1711" y2="2884.4927" gradientTransform="matrix(-0.3721 0 0 0.3721 -625.8669 -1014.004)">
			<stop  offset="0" style="stop-color:#3A00B7"/>
			<stop  offset="1" style="stop-color:#54052D"/>
		</linearGradient>
		<path class="st9" d="M42,42h-2v-4h2V42z"/>
		
			<linearGradient id="SVGID_9_" gradientUnits="userSpaceOnUse" x1="-1802.9209" y1="2739.209" x2="-1802.9209" y2="2884.4927" gradientTransform="matrix(-0.3721 0 0 0.3721 -625.8669 -1014.004)">
			<stop  offset="0" style="stop-color:#3A00B7"/>
			<stop  offset="1" style="stop-color:#54052D"/>
		</linearGradient>
		<path class="st10" d="M46,42h-2v-4h2V42z"/>
		
			<linearGradient id="SVGID_10_" gradientUnits="userSpaceOnUse" x1="-1813.6708" y1="2751.3027" x2="-1813.6708" y2="2779.8601" gradientTransform="matrix(-0.3721 0 0 0.3721 -625.8669 -1014.004)">
			<stop  offset="0" style="stop-color:#6C28FF"/>
			<stop  offset="1" style="stop-color:#BE0B65"/>
		</linearGradient>
		<path class="st11" d="M44,15c0,2.8,2.2,5,5,5s5-2.2,5-5s-2.2-5-5-5S44,12.2,44,15z"/>
	</g>
</g>
</svg>
