<?xml version="1.0" encoding="UTF-8"?>
<svg xmlns="http://www.w3.org/2000/svg" xmlns:xlink="http://www.w3.org/1999/xlink" viewBox="0 0 64 64" width="64px" height="64px">
<g id="surface89621079">
<path style=" stroke:none;fill-rule:nonzero;fill:rgb(98.039216%,93.725491%,87.058824%);fill-opacity:1;" d="M 14 5 L 55 5 C 58.3125 5 61 7.6875 61 11 L 61 54 C 61 55.65625 59.65625 57 58 57 L 20 57 C 18.34375 57 17 55.65625 17 54 L 17 8 Z M 14 5 "/>
<path style=" stroke:none;fill-rule:nonzero;fill:rgb(93.725491%,84.705883%,74.509805%);fill-opacity:1;" d="M 17 47 L 61 47 L 61 57 L 17 57 Z M 17 47 "/>
<path style=" stroke:none;fill-rule:nonzero;fill:rgb(100%,96.862745%,94.117647%);fill-opacity:1;" d="M 17 5 L 57 5 C 58.105469 5 59 5.894531 59 7 C 59 8.105469 58.105469 9 57 9 L 17 9 C 15.894531 9 15 8.105469 15 7 C 15 5.894531 15.894531 5 17 5 Z M 17 5 "/>
<path style=" stroke:none;fill-rule:nonzero;fill:rgb(80.392158%,63.137257%,65.490198%);fill-opacity:1;" d="M 15 17 L 7 17 C 5.894531 17 5 16.105469 5 15 L 5 11 C 5 7.6875 7.6875 5 11 5 C 14.3125 5 17 7.6875 17 11 L 17 15 C 17 16.105469 16.105469 17 15 17 Z M 15 17 "/>
<path style=" stroke:none;fill-rule:nonzero;fill:rgb(92.156863%,58.823532%,59.215689%);fill-opacity:1;" d="M 39 63 L 35 61 L 29 63 L 29 54 L 39 54 Z M 39 63 "/>
<path style=" stroke:none;fill-rule:nonzero;fill:rgb(97.647059%,89.019608%,68.235296%);fill-opacity:1;" d="M 28.171875 46.359375 L 27 44.730469 L 28.910156 44.101562 C 29.34375 43.957031 29.644531 43.558594 29.660156 43.101562 L 29.660156 41 L 31.578125 41.609375 C 32.023438 41.75 32.511719 41.59375 32.789062 41.21875 L 34 39.640625 L 35.191406 41.261719 C 35.46875 41.632812 35.953125 41.789062 36.398438 41.648438 L 38.328125 41 L 38.328125 43 C 38.34375 43.457031 38.644531 43.855469 39.078125 44 L 40.988281 44.628906 L 39.820312 46.269531 C 39.542969 46.652344 39.542969 47.167969 39.820312 47.550781 L 41 49.269531 L 39.089844 49.898438 C 38.65625 50.042969 38.355469 50.441406 38.339844 50.898438 L 38.339844 52.898438 L 36.421875 52.289062 C 35.976562 52.148438 35.488281 52.304688 35.210938 52.679688 L 34 54.359375 L 32.808594 52.738281 C 32.53125 52.367188 32.046875 52.210938 31.601562 52.351562 L 29.671875 53 L 29.671875 51 C 29.65625 50.542969 29.355469 50.144531 28.921875 50 L 27 49.269531 L 28.171875 47.628906 C 28.441406 47.25 28.441406 46.738281 28.171875 46.359375 Z M 28.171875 46.359375 "/>
<path style=" stroke:none;fill-rule:nonzero;fill:rgb(96.470588%,82.745099%,59.215689%);fill-opacity:1;" d="M 39.621094 47 L 28.378906 47 C 28.378906 47.230469 28.304688 47.453125 28.171875 47.640625 L 27 49.269531 L 28.910156 49.898438 C 29.34375 50.042969 29.644531 50.441406 29.660156 50.898438 L 29.660156 52.898438 L 31.578125 52.289062 C 32.023438 52.148438 32.511719 52.304688 32.789062 52.679688 L 34 54.359375 L 35.191406 52.738281 C 35.46875 52.367188 35.953125 52.210938 36.398438 52.351562 L 38.320312 52.960938 L 38.320312 50.960938 C 38.335938 50.503906 38.632812 50.101562 39.070312 49.960938 L 41 49.269531 L 39.828125 47.628906 C 39.695312 47.445312 39.621094 47.226562 39.621094 47 Z M 39.621094 47 "/>
<path style=" stroke:none;fill-rule:nonzero;fill:rgb(92.156863%,58.823532%,59.215689%);fill-opacity:1;" d="M 51 28 L 47 28 C 46.449219 28 46 28.449219 46 29 C 46 29.550781 46.449219 30 47 30 L 51 30 C 51.550781 30 52 29.550781 52 29 C 52 28.449219 51.550781 28 51 28 Z M 43 28 L 27 28 C 26.449219 28 26 28.449219 26 29 C 26 29.550781 26.449219 30 27 30 L 43 30 C 43.550781 30 44 29.550781 44 29 C 44 28.449219 43.550781 28 43 28 Z M 26 23 C 26 23.550781 26.449219 24 27 24 L 35 24 C 35.550781 24 36 23.550781 36 23 C 36 22.449219 35.550781 22 35 22 L 27 22 C 26.449219 22 26 22.449219 26 23 Z M 39 24 L 51 24 C 51.550781 24 52 23.550781 52 23 C 52 22.449219 51.550781 22 51 22 L 39 22 C 38.449219 22 38 22.449219 38 23 C 38 23.550781 38.449219 24 39 24 Z M 39 24 "/>
<path style=" stroke:none;fill-rule:nonzero;fill:rgb(15.686275%,27.450982%,29.411766%);fill-opacity:1;" d="M 41 12 C 41.550781 12 42 11.550781 42 11 L 42 9 C 42 8.449219 41.550781 8 41 8 C 40.449219 8 40 8.449219 40 9 L 40 11 C 40 11.550781 40.449219 12 41 12 Z M 46 12 C 46.550781 12 47 11.550781 47 11 L 47 9 C 47 8.449219 46.550781 8 46 8 C 45.449219 8 45 8.449219 45 9 L 45 11 C 45 11.550781 45.449219 12 46 12 Z M 51 12 C 51.550781 12 52 11.550781 52 11 L 52 9 C 52 8.449219 51.550781 8 51 8 C 50.449219 8 50 8.449219 50 9 L 50 11 C 50 11.550781 50.449219 12 51 12 Z M 56 12 C 56.550781 12 57 11.550781 57 11 L 57 9 C 57 8.449219 56.550781 8 56 8 C 55.449219 8 55 8.449219 55 9 L 55 11 C 55 11.550781 55.449219 12 56 12 Z M 21 8 C 20.449219 8 20 8.449219 20 9 L 20 11 C 20 11.550781 20.449219 12 21 12 C 21.550781 12 22 11.550781 22 11 L 22 9 C 22 8.449219 21.550781 8 21 8 Z M 27 11 L 27 9 C 27 8.449219 26.550781 8 26 8 C 25.449219 8 25 8.449219 25 9 L 25 11 C 25 11.550781 25.449219 12 26 12 C 26.550781 12 27 11.550781 27 11 Z M 31 12 C 31.550781 12 32 11.550781 32 11 L 32 9 C 32 8.449219 31.550781 8 31 8 C 30.449219 8 30 8.449219 30 9 L 30 11 C 30 11.550781 30.449219 12 31 12 Z M 36 12 C 36.550781 12 37 11.550781 37 11 L 37 9 C 37 8.449219 36.550781 8 36 8 C 35.449219 8 35 8.449219 35 9 L 35 11 C 35 11.550781 35.449219 12 36 12 Z M 36 12 "/>
<path style=" stroke:none;fill-rule:nonzero;fill:rgb(15.686275%,27.450982%,29.411766%);fill-opacity:1;" d="M 55 4 L 11 4 C 7.132812 4 4 7.132812 4 11 L 4 13 C 4 15.761719 6.238281 18 9 18 L 16 18 L 16 55 C 16 56.65625 17.34375 58 19 58 L 28 58 L 28 63 C 28 63.347656 28.179688 63.667969 28.476562 63.847656 C 28.773438 64.03125 29.140625 64.046875 29.449219 63.890625 L 34.078125 62.078125 L 38.691406 63.949219 C 38.789062 63.984375 38.894531 64 39 64 C 39.550781 64 40 63.550781 40 63 L 40 58 L 59 58 C 60.65625 58 62 56.65625 62 55 L 62 11 C 62 7.132812 58.867188 4 55 4 Z M 13 16 C 13.648438 15.132812 14 14.082031 14 13 L 14 12 C 14 11.449219 13.550781 11 13 11 C 12.449219 11 12 11.449219 12 12 L 12 13 C 12 14.65625 10.65625 16 9 16 C 7.34375 16 6 14.65625 6 13 L 6 11 C 6 8.238281 8.238281 6 11 6 C 12.339844 5.953125 13.636719 6.46875 14.585938 7.414062 C 15.53125 8.363281 16.046875 9.660156 16 11 L 16 16 Z M 28.699219 46.421875 L 27.628906 44.921875 L 29.378906 44.339844 C 29.761719 44.183594 30.007812 43.8125 30 43.398438 L 30 41.558594 L 31.75 42.121094 C 32.160156 42.25 32.605469 42.105469 32.859375 41.761719 L 34 40.269531 L 35.089844 41.75 C 35.34375 42.097656 35.792969 42.242188 36.199219 42.109375 L 38 41.558594 L 38 43.398438 C 38.003906 43.828125 38.28125 44.207031 38.691406 44.339844 L 40.441406 44.921875 L 39.371094 46.421875 C 39.117188 46.769531 39.117188 47.242188 39.371094 47.589844 L 40.441406 49.089844 L 38.691406 49.671875 C 38.28125 49.804688 38.003906 50.179688 38 50.609375 L 38 52.449219 L 36.25 51.890625 C 35.839844 51.757812 35.394531 51.902344 35.140625 52.25 L 34 53.730469 L 32.910156 52.25 C 32.65625 51.902344 32.207031 51.757812 31.800781 51.890625 L 30 52.441406 L 30 50.601562 C 29.996094 50.171875 29.71875 49.792969 29.308594 49.660156 L 27.558594 49.078125 L 28.628906 47.578125 C 28.890625 47.242188 28.914062 46.777344 28.679688 46.421875 Z M 34.339844 60.050781 C 34.230469 60.015625 34.117188 59.996094 34 60 C 33.84375 60 33.6875 60.039062 33.550781 60.109375 L 30 61.378906 L 30 54.550781 L 31.71875 54 L 33.191406 56 C 33.378906 56.253906 33.675781 56.40625 33.996094 56.40625 C 34.3125 56.40625 34.613281 56.253906 34.800781 56 L 36.269531 54 L 37.988281 54.550781 L 37.988281 61.609375 Z M 59 56 L 40 56 L 40 51.320312 L 42.308594 50.550781 C 42.613281 50.449219 42.847656 50.214844 42.945312 49.910156 C 43.046875 49.609375 42.996094 49.277344 42.808594 49.019531 L 41.359375 47.019531 L 42.808594 45.019531 C 42.996094 44.761719 43.046875 44.429688 42.945312 44.128906 C 42.847656 43.828125 42.613281 43.589844 42.308594 43.488281 L 40 42.671875 L 40 40.191406 C 40 39.871094 39.847656 39.574219 39.589844 39.386719 C 39.332031 39.199219 39.003906 39.144531 38.699219 39.238281 L 36.28125 40 L 34.808594 38 C 34.621094 37.746094 34.324219 37.59375 34.003906 37.59375 C 33.6875 37.59375 33.386719 37.746094 33.199219 38 L 31.730469 40 L 29.359375 39.25 C 29.058594 39.15625 28.726562 39.210938 28.46875 39.398438 C 28.214844 39.585938 28.0625 39.882812 28.058594 40.199219 L 28.058594 42.679688 L 25.710938 43.460938 C 25.410156 43.558594 25.171875 43.796875 25.074219 44.097656 C 24.976562 44.402344 25.027344 44.730469 25.210938 44.988281 L 26.660156 46.988281 L 25.210938 48.988281 C 25.027344 49.25 24.976562 49.578125 25.074219 49.882812 C 25.171875 50.183594 25.410156 50.421875 25.710938 50.519531 L 28.019531 51.289062 L 28.019531 56 L 19 56 C 18.449219 56 18 55.550781 18 55 L 18 48 L 23 48 C 23.550781 48 24 47.550781 24 47 C 24 46.449219 23.550781 46 23 46 L 18 46 L 18 11 C 18.027344 9.132812 17.308594 7.332031 16 6 L 55 6 C 57.761719 6 60 8.238281 60 11 L 60 46 L 45 46 C 44.449219 46 44 46.449219 44 47 C 44 47.550781 44.449219 48 45 48 L 60 48 L 60 55 C 60 55.550781 59.550781 56 59 56 Z M 59 56 "/>
</g>
</svg>
