<?xml version="1.0" encoding="UTF-8"?>
<svg enable-background="new 0 0 60 60" version="1.1" viewBox="0 0 60 60" xml:space="preserve" xmlns="http://www.w3.org/2000/svg">
<style type="text/css">
	.st0{fill:#3998FF;}
	.st1{fill:#2486E0;}
	.st2{fill:#FE4F60;}
	.st3{fill:#EA475F;}
	.st4{fill:#CAF1FC;}
	.st5{fill:#B0EDFC;}
	.st6{fill:#42434D;}
	.st7{fill:#FF6D7A;}
	.st8{fill:#88C1FF;}
	.st9{fill:#E3F7FC;}
	.st10{fill:#F6F0ED;}
</style>
<path class="st0" d="m59 38.6c0 2.1-1.7 4-3.9 4h-15.5c-2 0-3.6-1.4-3.9-3.4l-3.1-22.5c-0.3-2.4 1.5-4.5 3.9-4.5h15.5c2 0 3.6 1.5 3.9 3.3 0 0.1 3.1 22.6 3.1 23.1z"/>
<path class="st1" d="m59 38.6c0 2.1-1.7 4-3.9 4h-15.5c-2 0-3.6-1.4-3.9-3.4-0.1-0.9-0.4-3.1-3.1-22.5-0.3-2.4 1.5-4.5 3.9-4.5h10.2c0 0.3 2.7 19.5 3.2 23 0.3 1.9 1.9 3.4 3.9 3.4h5.2z"/>
<path class="st2" d="m57.5 27.4h-23.4c-0.7-5.4-1.5-10.7-1.5-10.7-0.3-2.4 1.5-4.5 3.9-4.5h15.5c2 0 3.6 1.5 3.9 3.3-0.1 0 0.8 6 1.6 11.9z"/>
<path class="st3" d="m48.8 27.4h-14.7c-0.7-5.4-1.5-10.7-1.5-10.7-0.3-2.4 1.5-4.5 3.9-4.5h10.2c0.6 4.1 1.4 10.2 2.1 15.2z"/>
<path class="st4" d="m58.4 34.2h-23.4c-0.6-4.1-1.4-9.8-1.9-13.6h23.4c0.6 4.2 1.4 9.8 1.9 13.6z"/>
<path class="st5" d="m49.7 34.2h-14.7c-0.6-4.1-1.4-9.8-1.9-13.6h14.7c0.8 5 1.6 10.9 1.9 13.6z"/>
<path class="st6" d="m44.3 32.5s-6.5 9.5-6.6 9.6c-1.1-0.6-1.8-1.6-2-2.9-0.2-1.4 0.3 2.5-3.1-22.5-0.3-2.4 1.5-4.5 3.9-4.5h6c1.1 7.8 0.6 4.2 2.4 17.2 0.1 1.1-0.1 2.3-0.6 3.1z"/>
<path class="st2" d="m40.9 34.2h-35.7c-0.3-2.2-4.2-30.3-4.2-30.3 39.4 0 37.1 0 37.7 0.1 1.6 0.3 3 1.7 3.3 3.5l3 21.9c0.4 2.6-1.5 4.8-4.1 4.8z"/>
<path class="st0" d="m40.9 34.2h-6.4v-15.2h9.1c0.7 5.3 1.4 10.4 1.4 10.4 0.4 2.6-1.5 4.8-4.1 4.8z"/>
<path class="st7" d="m38 7.5c-7.8 0.1-18.7 0.3-24.2 5.7-2.9 2.9-3.9 6.8-4.5 11.4-0.1 1.4-1.2 2.4-2.5 2.5-1.4 0.1-2.7-0.9-2.9-2.3 0-0.1-0.5-3.5-2.9-20.9h37c2.4 0.1 2.3 3.6 0 3.6z"/>
<path class="st0" d="m34.5 3.9v15.1h-31.4c-1-7.5-2-14.9-2.1-15.1h33.5z"/>
<path class="st8" d="m34.5 3.9v3.8c-7.3 0.2-16 1-20.7 5.7-1.6 1.6-2.6 3.6-3.3 5.7h-7.4c-1-7.6-2-15-2.1-15.2h33.5z"/>
<path class="st4" d="m42.7 25.8c0.7 5.3 0.9 6.7 1 7.3-0.7 0.7-1.7 1.1-2.8 1.1h-10.7l-1.1-8.4h-24.8c-0.2-0.3-0.3-0.6-0.3-0.9l-1.7-12.5c0-0.1-1.9 0 25.1 0-0.7-5.2-0.4-3.2-1.1-8.4h12.4c0.3 0 0.7 0.1 1.1 0.3 0.7 5.2 0.5 3.6 1.1 7.9h1.8s1.8 13.2 1.9 13.5l-1.9 0.1z"/>
<path class="st9" d="m15 12.3c-3.9 3-5 7.5-5.6 12.4 0 0.4-0.2 0.8-0.4 1.1h-4.7c-0.4-0.6-0.3-0.5-2-13.2v-0.3h12.7z"/>
<path class="st9" d="m38 7.5c-3.4 0.1-7.4 0.1-11.3 0.6l-0.6-4.3h12c2.3 0.2 2.2 3.7-0.1 3.7z"/>
<path d="m60 37.6l-3-21.9c-0.4-2.6-2.6-4.5-5.2-4.5h-3.7c-0.6 0-1 0.5-1 1s0.5 1 1 1h3.7c1.6 0 2.9 1.2 3.1 2.7l0.5 3.6h-6.4c-0.6 0-1 0.5-1 1s0.5 1 1 1h6.7l1.6 11.5h-6.3c-0.6 0-1 0.5-1 1 0 0.6 0.5 1 1 1h6.6l0.4 2.7c0.3 1.9-1.2 3.6-3.1 3.6h-15.2c-1.6 0-2.9-1.2-3.1-2.7-0.1-0.6-0.6-1-1.2-0.9s-1 0.6-0.9 1.2c0.4 2.6 2.6 4.5 5.2 4.5h15.1c3.1 0.2 5.6-2.6 5.2-5.8z"/>
<path d="m40.9 35.2c3.2 0 5.6-2.8 5.2-5.9-0.8-5.5-0.5-3.4-3-21.9-0.4-2.6-2.6-4.5-5.2-4.5h-36.9c-0.6-0.1-1.1 0.5-1 1.1l4.2 30.3c0.1 0.5 0.5 0.9 1 0.9h35.7zm-38.7-30.3h23l0.9 6.3h-18.6c-1.4 0-1.5 2.1 0 2.1h1.3c0.4-0.1-1.9 0 18.4 0 0.6 0 1.1-0.6 1-1.2l-1-7.2h10.5c1.6 0 2.9 1.2 3.1 2.7 2.5 18.3 2.3 16.4 3 21.9 0.3 1.9-1.2 3.6-3.1 3.6h-9.8l-1-7.5c-0.1-0.5-0.5-0.9-1-0.9h-19.6c-0.6 0-1 0.5-1 1 0 0.6 0.5 1 1 1h18.7l0.9 6.3h-22.8l-3.9-28.1zm6.3 8.4s-0.1 0 0 0zm-0.4-0.2c-0.2-0.1-0.3-0.3-0.4-0.6 0.1 0.3 0.2 0.5 0.4 0.6z"/>
<path class="st10" d="m2.8 5.5c-0.2-1.7-1.1-2.9-2-2.6s-1.4 1.9-1.2 3.6l6.4 47.2c0.2 1.6 1 2.7 1.8 2.6 1-0.1 1.7-1.8 1.4-3.7l-6.4-47.1z"/>
<path d="m36.2 22.4c0.3 0.2 0.7 0.3 1.1 0.3 1.7 0 3.1-1.4 2.8-3.3-0.2-1.6-1.6-2.7-1.8-2.8-0.5-0.3-1.1-0.3-1.5 0.2-0.3 0.5-0.3 1.1 0.2 1.5 0.2 0.2 0.9 0.8 1 1.4 0.1 0.5-0.3 0.9-0.8 0.9-0.1 0-0.1 0-0.2-0.2-0.1-0.6-0.6-0.9-1.2-0.9-0.5 0.1-0.9 0.5-0.9 1-0.5-0.1-1.1-0.6-1.2-1.2-0.1-0.7 0.4-1.2 0.4-1.2l-1.5-1.5c-0.1 0.1-1.3 1.3-1 3 0.4 2.4 3.1 3.6 4.6 2.8zm0.8-2z"/>
</svg>