<?xml version="1.0" encoding="UTF-8"?>
<svg xmlns="http://www.w3.org/2000/svg" xmlns:xlink="http://www.w3.org/1999/xlink" viewBox="0 0 16 16" width="16px" height="16px">
<g id="surface167266170">
<path style=" stroke:none;fill-rule:nonzero;fill:rgb(0%,0%,0%);fill-opacity:1;" d="M 2.5 1 C 1.675781 1 1 1.675781 1 2.5 L 1 5 L 2 5 L 2 2.5 C 2 2.21875 2.21875 2 2.5 2 L 12.5 2 C 12.78125 2 13 2.21875 13 2.5 L 13 12.5 C 13 12.78125 12.78125 13 12.5 13 L 2.5 13 C 2.21875 13 2 12.78125 2 12.5 L 2 10 L 1 10 L 1 12.5 C 1 13.324219 1.675781 14 2.5 14 L 12.5 14 C 13.324219 14 14 13.324219 14 12.5 L 14 2.5 C 14 1.675781 13.324219 1 12.5 1 Z M 6.726562 4.023438 L 6.023438 4.726562 L 8.292969 7 L 0 7 L 0 8 L 8.292969 8 L 6.023438 10.269531 L 6.726562 10.980469 L 10.207031 7.5 Z M 6.726562 4.023438 "/>
</g>
</svg>
