<svg xmlns="http://www.w3.org/2000/svg" xmlns:xlink="http://www.w3.org/1999/xlink" viewBox="0,0,256,256" width="64px" height="64px" fill-rule="nonzero"><g fill="none" fill-rule="nonzero" stroke="none" stroke-width="1" stroke-linecap="butt" stroke-linejoin="miter" stroke-miterlimit="10" stroke-dasharray="" stroke-dashoffset="0" font-family="none" font-weight="none" font-size="none" text-anchor="none" style="mix-blend-mode: normal"><g transform="scale(4,4)"><path d="M58.42,41.65h-15c-2.17,3.84 -5.18,6 -10.37,6c-6.38,0 -10.93,-5.53 -11.09,-11.16h37c0.93,-18.25 -11,-29.44 -25.21,-29.44c-15.97,-0.05 -24.5,8.95 -26.5,20.19c-2.25,13.26 1.63,32.17 24.67,32.17c13.01,0 22.67,-6.68 26.5,-17.76zM33,19.06c5.69822,-0.14502 10.48704,4.25026 10.83,9.94h-21.72c0.54361,-5.61585 5.24798,-9.90983 10.89,-9.94z" fill="#85cbf8"></path><path d="M55.43,31.8c0.00649,-11.28119 -8.44514,-20.77519 -19.65121,-22.07488c-11.20607,-1.29969 -21.60636,6.00785 -24.18211,16.99106c-2.57576,10.9832 3.49135,22.15264 14.10687,25.9705c10.61552,3.81786 22.40684,-0.92881 27.41646,-11.03668h-9.71c-2.17,3.84 -5.18,6 -10.37,6c-6.39,0 -10.93,-5.54 -11.09,-11.16h33c0.32753,-1.54163 0.48845,-3.11399 0.48,-4.69zM22.11,29c0.54361,-5.61585 5.24798,-9.90983 10.89,-9.94c5.70019,-0.15028 10.49212,4.24785 10.83,9.94z" fill="#85cbf8"></path><path d="M58.42,41.65c-3.83,11.08 -13.49,17.76 -26.5,17.76c-9.42,0 -15.63,-3.16 -19.53,-7.8l1.95,-1.95c1.4082,-1.40797 3.6376,-1.5657 5.23,-0.37c5.25876,4.10773 12.08689,5.63082 18.59284,4.14735c6.50595,-1.48347 11.99889,-5.81599 14.95716,-11.79735z" fill="#6fc6f0"></path><path d="M57.74,25.33l-1,0.33c-1.47119,0.47823 -3.0648,-0.24062 -3.68,-1.66c-1.00012,-2.45554 -2.44806,-4.70374 -4.27,-6.63c-3.93303,-4.09073 -9.38579,-6.36814 -15.06,-6.29h-0.13c-1.41411,-0.00406 -2.82703,0.08279 -4.23,0.26c-1.50674,0.24512 -2.95729,-0.6803 -3.37,-2.15l-0.37,-1.28c2.64867,-0.59085 5.35635,-0.87605 8.07,-0.85c11.04,0 20.7,6.74 24.04,18.27z" fill="#9fddff"></path><path d="M33,18.06c-6.16793,0.02914 -11.30925,4.7294 -11.89,10.87c-0.01371,0.27377 0.08557,0.54116 0.27461,0.73966c0.18904,0.19849 0.45128,0.31069 0.72539,0.31034h21.72c0.55228,0 1,-0.44772 1,-1c-0.38443,-6.21987 -5.5993,-11.03359 -11.83,-10.92zM23.24,28c0.97217,-4.61813 5.04067,-7.92795 9.76,-7.94c4.75162,-0.09758 8.87269,3.26534 9.73,7.94zM33,56c0.55228,0 1,-0.44772 1,-1v-2c0,-0.55228 -0.44772,-1 -1,-1c-0.55228,0 -1,0.44772 -1,1v2c0,0.55228 0.44772,1 1,1zM37.6,54.53c0.14636,0.53295 0.69705,0.84636 1.23,0.7c0.53295,-0.14636 0.84636,-0.69705 0.7,-1.23l-0.53,-1.92c-0.15796,-0.51527 -0.69585,-0.81268 -1.21624,-0.67247c-0.52039,0.14021 -0.83605,0.66758 -0.71376,1.19247zM21.75,53c0.23052,0.13355 0.50481,0.16958 0.762,0.10012c0.2572,-0.06946 0.47605,-0.23868 0.608,-0.47012l1,-1.73c0.2484,-0.47485 0.07832,-1.06111 -0.38564,-1.32929c-0.46396,-0.26819 -1.05686,-0.12296 -1.34436,0.32929l-1,1.73c-0.13437,0.22931 -0.17194,0.50268 -0.10439,0.75973c0.06755,0.25705 0.23464,0.47664 0.46439,0.61027zM42.88,52.62c0.17026,0.32548 0.50526,0.53141 0.87255,0.53638c0.36729,0.00497 0.70774,-0.19182 0.88675,-0.51257c0.17901,-0.32075 0.16776,-0.71382 -0.0293,-1.02381l-1,-1.73c-0.2875,-0.45225 -0.8804,-0.59748 -1.34436,-0.32929c-0.46396,0.26819 -0.63404,0.85444 -0.38564,1.32929zM27.18,55.23c0.5328,0.13972 1.07828,-0.17772 1.22,-0.71l0.52,-1.93c0.14122,-0.35819 0.06425,-0.76564 -0.19789,-1.04763c-0.26214,-0.28199 -0.6629,-0.38845 -1.03043,-0.27371c-0.36753,0.11474 -0.63654,0.43029 -0.69168,0.81134l-0.53,1.92c-0.07014,0.2573 -0.0346,0.53196 0.09873,0.76293c0.13332,0.23097 0.35339,0.39912 0.61127,0.46707zM40.35,13.32c0.71616,0.26838 1.41719,0.5755 2.1,0.92c0.13932,0.07138 0.29346,0.10906 0.45,0.11c0.46084,-0.00273 0.86014,-0.32005 0.96688,-0.76836c0.10674,-0.44832 -0.10672,-0.91153 -0.51688,-1.12164c-0.74766,-0.37544 -1.5155,-0.70929 -2.3,-1c-0.50623,-0.15711 -1.04712,0.10807 -1.23294,0.60449c-0.18582,0.49641 0.04797,1.05158 0.53294,1.26551zM47.17,14.88c-0.4349,-0.29119 -1.02077,-0.19777 -1.34354,0.21423c-0.32278,0.412 -0.27327,1.00319 0.11354,1.35577c2.31427,1.81223 4.22498,4.08737 5.61,6.68c0.25957,0.48877 0.86623,0.67457 1.355,0.415c0.48877,-0.25957 0.67457,-0.86623 0.415,-1.355c-1.05678,-2.0073 -2.4047,-3.84722 -4,-5.46c-0.6784,-0.65979 -1.3964,-1.27761 -2.15,-1.85z" fill="#08243b"></path><path d="M57.45,7c-3.63,-3.63 -10.18,-3.49 -17.72,-0.3c-2.00797,-0.45702 -4.06068,-0.68846 -6.12,-0.69c-14.78,0 -25,7.85 -27.34,21c-0.71703,4.08847 -0.76431,8.26635 -0.14,12.37c-3.89,8.29 -4.32,15.53 -0.43,19.42c2.02168,1.87436 4.71712,2.84862 7.47,2.7c3.16343,-0.09629 6.2821,-0.77426 9.2,-2c0.14157,-0.05728 0.26814,-0.14622 0.37,-0.26c2.99538,0.80858 6.08757,1.20226 9.19,1.17c13.19,0 23.45,-6.89 27.44,-18.43c0.10728,-0.30687 0.05871,-0.64673 -0.13024,-0.91126c-0.18895,-0.26453 -0.49469,-0.4207 -0.81976,-0.41874h-15c-0.36076,0.00062 -0.69323,0.19551 -0.87,0.51c-2.17,3.85 -5,5.5 -9.5,5.5c-5.63,0 -9.4,-4.58 -10,-9.16h35.95c0.53333,0.00067 0.97333,-0.41733 1,-0.95c0.26364,-4.40499 -0.32721,-8.81939 -1.74,-13c2.74,-7.32 2.51,-13.18 -0.81,-16.55zM56,8.46c2.39,2.4 2.74,6.81 1,12.3c-1.17325,-2.52058 -2.74319,-4.83666 -4.65,-6.86c-2.60412,-2.74902 -5.80227,-4.8663 -9.35,-6.19c5.66,-1.94 10.43,-1.86 13,0.75zM8.2,27.46c2.19,-12.17 11.67,-19.4 25.41,-19.4h0.13c0.95224,0.00002 1.90374,0.05343 2.85,0.16c-6.27257,3.37394 -11.99481,7.68333 -16.97,12.78c-4.61195,4.53003 -8.59425,9.65926 -11.84,15.25c-0.19626,-2.95117 -0.04185,-5.9152 0.46,-8.83zM7.08,57.46c-2.83,-2.83 -2.69,-8.18 -0.23,-14.47c0.89391,3.42645 2.51763,6.6193 4.76,9.36c2.22623,2.64003 5.06099,4.69917 8.26,6c-5.69,1.79 -10.29,1.5 -12.76,-0.97zM58,35.5h-36c-0.55228,0 -1,0.44772 -1,1c0.16,5.83 4.83,12.13 12.09,12.13c5,0 8.46,-1.91 10.95,-6h12.96c-4,10 -13.09,15.76 -25.06,15.76c-8.29,0 -14.6,-2.5 -18.76,-7.42c-2.58519,-3.21543 -4.29088,-7.0472 -4.95,-11.12c3.28086,-6.47746 7.59389,-12.3779 12.77,-17.47c5.46897,-5.61234 11.90532,-10.19231 19,-13.52c4.1979,1.06187 8.01077,3.2872 11,6.42c4.79,5.07 7.2,12.05 7,20.22z" fill="#08243b"></path></g></g></svg>