<?xml version="1.0" encoding="UTF-8"?>
<svg xmlns="http://www.w3.org/2000/svg" xmlns:xlink="http://www.w3.org/1999/xlink" viewBox="0 0 64 64" width="64px" height="64px">
<defs>
<linearGradient id="linear0" gradientUnits="userSpaceOnUse" x1="44.34375" y1="96.578003" x2="44.34375" y2="130.255066" gradientTransform="matrix(0.372093,0,0,0.372093,0,0)">
<stop offset="0" style="stop-color:rgb(36.078432%,65.882355%,71.764708%);stop-opacity:1;"/>
<stop offset="1" style="stop-color:rgb(38.82353%,76.862746%,82.352942%);stop-opacity:1;"/>
</linearGradient>
<linearGradient id="linear1" gradientUnits="userSpaceOnUse" x1="127.65625" y1="96.578003" x2="127.65625" y2="130.255066" gradientTransform="matrix(0.372093,0,0,0.372093,0,0)">
<stop offset="0" style="stop-color:rgb(36.078432%,65.882355%,71.764708%);stop-opacity:1;"/>
<stop offset="1" style="stop-color:rgb(38.82353%,76.862746%,82.352942%);stop-opacity:1;"/>
</linearGradient>
<linearGradient id="linear2" gradientUnits="userSpaceOnUse" x1="86.002693" y1="39.740059" x2="86.002693" y2="135.460754" gradientTransform="matrix(0.372093,0,0,0.372093,0,0)">
<stop offset="0" style="stop-color:rgb(19.607843%,40.392157%,44.313726%);stop-opacity:1;"/>
<stop offset="1" style="stop-color:rgb(17.254902%,54.901963%,60.000002%);stop-opacity:1;"/>
</linearGradient>
</defs>
<g id="surface87462195">
<path style=" stroke:none;fill-rule:nonzero;fill:url(#linear0);" d="M 23 48 L 10 48 C 8.347656 48 7 46.652344 7 45 L 7 39 C 7 37.898438 7.898438 37 9 37 L 24 37 C 25.101562 37 26 37.898438 26 39 L 26 45 C 26 46.652344 24.652344 48 23 48 Z M 9 39 L 9 45 C 9 45.550781 9.449219 46 10 46 L 23 46 C 23.550781 46 24 45.550781 24 45 L 24 39 Z M 9 39 "/>
<path style=" stroke:none;fill-rule:nonzero;fill:url(#linear1);" d="M 54 48 L 41 48 C 39.347656 48 38 46.652344 38 45 L 38 39 C 38 37.898438 38.898438 37 40 37 L 55 37 C 56.101562 37 57 37.898438 57 39 L 57 45 C 57 46.652344 55.652344 48 54 48 Z M 40 39 L 40 45 C 40 45.550781 40.449219 46 41 46 L 54 46 C 54.550781 46 55 45.550781 55 45 L 55 39 Z M 40 39 "/>
<path style=" stroke:none;fill-rule:nonzero;fill:url(#linear2);" d="M 56 13 L 52 13 C 50.34375 13 49 14.347656 49 16 C 49 17.652344 50.34375 19 52 19 L 55 19 L 55 33 L 39 33 C 37.359375 33 35.910156 33.804688 35 35.03125 L 35 35 L 29 35 L 29 35.03125 C 28.089844 33.804688 26.640625 33 25 33 L 9 33 L 9 19 L 12 19 C 13.652344 19 15 17.652344 15 16 C 15 14.347656 13.652344 13 12 13 L 8 13 C 5.242188 13 3 15.242188 3 18 L 3 45 C 3 48.859375 6.140625 52 10 52 L 23 52 C 26.859375 52 30 48.859375 30 45 L 30 41 L 34 41 L 34 45 C 34 48.859375 37.140625 52 41 52 L 54 52 C 57.859375 52 61 48.859375 61 45 L 61 18 C 61 15.242188 58.757812 13 56 13 Z M 8 15 L 12 15 C 12.550781 15 13 15.449219 13 16 C 13 16.550781 12.550781 17 12 17 L 9 17 C 7.894531 17 7 17.898438 7 19 L 7 33.101562 C 6.257812 33.253906 5.585938 33.582031 5 34.023438 L 5 18 C 5 16.347656 6.347656 15 8 15 Z M 28 45 C 28 47.757812 25.757812 50 23 50 L 10 50 C 7.242188 50 5 47.757812 5 45 L 5 38 C 5 36.347656 6.347656 35 8 35 L 25 35 C 26.652344 35 28 36.347656 28 38 Z M 30 39 L 30 38 C 30 37.65625 29.964844 37.324219 29.898438 37 L 34.101562 37 C 34.035156 37.324219 34 37.65625 34 38 L 34 39 Z M 55 17 L 52 17 C 51.445312 17 51 16.550781 51 16 C 51 15.449219 51.445312 15 52 15 L 56 15 C 57.652344 15 59 16.347656 59 18 L 59 34.027344 C 58.414062 33.585938 57.742188 33.253906 57 33.101562 L 57 19 C 57 17.898438 56.101562 17 55 17 Z M 59 45 C 59 47.757812 56.757812 50 54 50 L 41 50 C 38.242188 50 36 47.757812 36 45 L 36 38 C 36 36.347656 37.347656 35 39 35 L 56 35 C 57.652344 35 59 36.347656 59 38 Z M 59 45 "/>
</g>
</svg>
