<?xml version="1.0" encoding="UTF-8"?>
<svg xmlns="http://www.w3.org/2000/svg" xmlns:xlink="http://www.w3.org/1999/xlink" viewBox="0 0 64 64" width="64px" height="64px">
<g id="surface87949332">
<path style=" stroke:none;fill-rule:nonzero;fill:rgb(17.254902%,54.901963%,60.000002%);fill-opacity:1;" d="M 35 34 L 5 34 C 3.894531 34 3 34.894531 3 36 L 3 48 C 3 51.3125 5.6875 54 9 54 L 19 54 C 24.523438 54 29 49.523438 29 44 L 29 40 C 29 38.894531 29.894531 38 31 38 L 33 38 C 34.105469 38 35 38.894531 35 40 L 35 44 C 35 49.523438 39.476562 54 45 54 L 55 54 C 58.3125 54 61 51.3125 61 48 L 61 36 C 61 34.894531 60.105469 34 59 34 Z M 35 34 "/>
<path style=" stroke:none;fill-rule:nonzero;fill:rgb(17.254902%,54.901963%,60.000002%);fill-opacity:1;" d="M 7 34 L 7 15 C 7 12.789062 8.789062 11 11 11 L 12 11 C 13.105469 11 14 10.105469 14 9 C 14 7.894531 13.105469 7 12 7 L 10.210938 7 C 6.226562 7 3 10.226562 3 14.210938 L 3 36 M 57 34 L 57 15 C 57 12.789062 55.210938 11 53 11 L 52 11 C 50.894531 11 50 10.105469 50 9 C 50 7.894531 50.894531 7 52 7 L 53.789062 7 C 57.773438 7 61 10.226562 61 14.210938 L 61 36 "/>
<path style=" stroke:none;fill-rule:nonzero;fill:rgb(89.019608%,94.901961%,100%);fill-opacity:1;" d="M 9 38 L 23 38 C 24.105469 38 25 38.894531 25 40 L 25 44 C 25 47.3125 22.3125 50 19 50 L 11 50 C 8.789062 50 7 48.210938 7 46 L 7 40 C 7 38.894531 7.894531 38 9 38 Z M 9 38 "/>
<path style=" stroke:none;fill-rule:nonzero;fill:rgb(25.882354%,85.09804%,78.431374%);fill-opacity:1;" d="M 7 45 C 7.164062 45.5 7.183594 46.039062 7.058594 46.550781 C 7.332031 48.519531 9.011719 49.988281 11 50 L 19 50 C 21.570312 50 23.855469 48.355469 24.679688 45.921875 C 24.320312 45.371094 25 45 25 45 Z M 7 45 "/>
<path style=" stroke:none;fill-rule:nonzero;fill:rgb(89.019608%,94.901961%,100%);fill-opacity:1;" d="M 53 50 L 45 50 C 41.6875 50 39 47.3125 39 44 L 39 40 C 39 38.894531 39.894531 38 41 38 L 55 38 C 56.105469 38 57 38.894531 57 40 L 57 46 C 57 48.210938 55.210938 50 53 50 Z M 53 50 "/>
<path style=" stroke:none;fill-rule:nonzero;fill:rgb(25.882354%,85.09804%,78.431374%);fill-opacity:1;" d="M 57 45 C 56.835938 45.5 56.816406 46.039062 56.941406 46.550781 C 56.667969 48.519531 54.988281 49.988281 53 50 L 45 50 C 42.429688 50 40.144531 48.355469 39.320312 45.921875 C 39.679688 45.371094 39 45 39 45 Z M 57 45 "/>
<path style="fill:none;stroke-width:5.375;stroke-linecap:butt;stroke-linejoin:miter;stroke:rgb(15.686275%,27.450982%,29.411766%);stroke-opacity:1;stroke-miterlimit:10;" d="M 24.1875 102.125 L 61.8125 102.125 C 64.783447 102.125 67.1875 104.529053 67.1875 107.5 L 67.1875 118.25 C 67.1875 127.152344 59.964844 134.375 51.0625 134.375 L 29.5625 134.375 C 23.620605 134.375 18.8125 129.566895 18.8125 123.625 L 18.8125 107.5 C 18.8125 104.529053 21.216553 102.125 24.1875 102.125 Z M 24.1875 102.125 " transform="matrix(0.372093,0,0,0.372093,0,0)"/>
<path style="fill:none;stroke-width:5.375;stroke-linecap:butt;stroke-linejoin:miter;stroke:rgb(15.686275%,27.450982%,29.411766%);stroke-opacity:1;stroke-miterlimit:10;" d="M 142.4375 134.375 L 120.9375 134.375 C 112.035156 134.375 104.8125 127.152344 104.8125 118.25 L 104.8125 107.5 C 104.8125 104.529053 107.216553 102.125 110.1875 102.125 L 147.8125 102.125 C 150.783447 102.125 153.1875 104.529053 153.1875 107.5 L 153.1875 123.625 C 153.1875 129.566895 148.379395 134.375 142.4375 134.375 Z M 142.4375 134.375 " transform="matrix(0.372093,0,0,0.372093,0,0)"/>
<path style="fill:none;stroke-width:5.375;stroke-linecap:butt;stroke-linejoin:miter;stroke:rgb(15.686275%,27.450982%,29.411766%);stroke-opacity:1;stroke-miterlimit:10;" d="M 94.0625 91.375 L 13.4375 91.375 C 10.466553 91.375 8.0625 93.779053 8.0625 96.75 L 8.0625 129 C 8.0625 137.902344 15.285156 145.125 24.1875 145.125 L 51.0625 145.125 C 65.906738 145.125 77.9375 133.094238 77.9375 118.25 L 77.9375 107.5 C 77.9375 104.529053 80.341553 102.125 83.3125 102.125 L 88.6875 102.125 C 91.658447 102.125 94.0625 104.529053 94.0625 107.5 L 94.0625 118.25 C 94.0625 133.094238 106.093262 145.125 120.9375 145.125 L 147.8125 145.125 C 156.714844 145.125 163.9375 137.902344 163.9375 129 L 163.9375 96.75 C 163.9375 93.779053 161.533447 91.375 158.5625 91.375 Z M 94.0625 91.375 " transform="matrix(0.372093,0,0,0.372093,0,0)"/>
<path style="fill:none;stroke-width:5.375;stroke-linecap:butt;stroke-linejoin:miter;stroke:rgb(15.686275%,27.450982%,29.411766%);stroke-opacity:1;stroke-miterlimit:10;" d="M 18.8125 91.375 L 18.8125 40.3125 C 18.8125 34.370605 23.620605 29.5625 29.5625 29.5625 L 32.25 29.5625 C 35.220947 29.5625 37.625 27.158447 37.625 24.1875 C 37.625 21.216553 35.220947 18.8125 32.25 18.8125 L 27.441895 18.8125 C 16.733887 18.8125 8.0625 27.483887 8.0625 38.191895 L 8.0625 96.75 M 153.1875 91.375 L 153.1875 40.3125 C 153.1875 34.370605 148.379395 29.5625 142.4375 29.5625 L 139.75 29.5625 C 136.779053 29.5625 134.375 27.158447 134.375 24.1875 C 134.375 21.216553 136.779053 18.8125 139.75 18.8125 L 144.558105 18.8125 C 155.266113 18.8125 163.9375 27.483887 163.9375 38.191895 L 163.9375 96.75 " transform="matrix(0.372093,0,0,0.372093,0,0)"/>
<path style="fill:none;stroke-width:5.375;stroke-linecap:round;stroke-linejoin:miter;stroke:rgb(15.686275%,27.450982%,29.411766%);stroke-opacity:1;stroke-miterlimit:10;" d="M 29.5625 123.625 L 29.5625 118.25 M 43 123.625 L 43 118.25 M 56.4375 123.625 L 56.4375 118.25 M 115.5625 123.625 L 115.5625 118.25 M 129 123.625 L 129 118.25 M 142.4375 123.625 L 142.4375 118.25 " transform="matrix(0.372093,0,0,0.372093,0,0)"/>
</g>
</svg>
