<svg xmlns="http://www.w3.org/2000/svg" xmlns:xlink="http://www.w3.org/1999/xlink" viewBox="0,0,256,256" width="24px" height="24px" fill-rule="nonzero"><g fill="none" fill-rule="nonzero" stroke="none" stroke-width="1" stroke-linecap="butt" stroke-linejoin="miter" stroke-miterlimit="10" stroke-dasharray="" stroke-dashoffset="0" font-family="none" font-weight="none" font-size="none" text-anchor="none" style="mix-blend-mode: normal"><g transform="scale(10.66667,10.66667)"><g fill="#f6f0ed"><path d="M19.5,4h-15c-0.829,0 -1.5,0.671 -1.5,1.5v1c0,0.829 0.671,1.5 1.5,1.5h15c0.829,0 1.5,-0.671 1.5,-1.5v-1c0,-0.829 -0.671,-1.5 -1.5,-1.5z"></path><path d="M19.5,10h-15c-0.829,0 -1.5,0.671 -1.5,1.5v1c0,0.829 0.671,1.5 1.5,1.5h15c0.829,0 1.5,-0.671 1.5,-1.5v-1c0,-0.829 -0.671,-1.5 -1.5,-1.5z"></path><path d="M19.5,16h-15c-0.829,0 -1.5,0.671 -1.5,1.5v1c0,0.829 0.671,1.5 1.5,1.5h15c0.829,0 1.5,-0.671 1.5,-1.5v-1c0,-0.829 -0.671,-1.5 -1.5,-1.5z"></path></g><path d="M12,4h-7.5c-0.829,0 -1.5,0.671 -1.5,1.5v1c0,0.829 0.671,1.5 1.5,1.5h7.5z" fill="#d4d4d6"></path><path d="M12,10h-7.5c-0.829,0 -1.5,0.671 -1.5,1.5v1c0,0.829 0.671,1.5 1.5,1.5h7.5z" fill="#d4d4d6"></path><path d="M12,16h-7.5c-0.829,0 -1.5,0.671 -1.5,1.5v1c0,0.829 0.671,1.5 1.5,1.5h7.5z" fill="#d4d4d6"></path></g></g></svg>