<?xml version="1.0" encoding="UTF-8"?>
<svg xmlns="http://www.w3.org/2000/svg" xmlns:xlink="http://www.w3.org/1999/xlink" viewBox="0 0 64 64" width="64px" height="64px">
<g id="surface89581091">
<path style=" stroke:none;fill-rule:nonzero;fill:rgb(96.470588%,82.745099%,59.215689%);fill-opacity:1;" d="M 5.015625 7.242188 L 10.480469 52.488281 C 10.675781 54.09375 11.816406 55.425781 13.382812 55.867188 L 30.914062 60.847656 C 31.625 61.046875 32.375 61.050781 33.089844 60.859375 L 51.53125 55.863281 C 53.144531 55.425781 54.320312 54.046875 54.484375 52.390625 L 59.035156 7.203125 C 59.152344 6.023438 58.21875 5 57.023438 5 L 7.019531 5 C 5.808594 5 4.871094 6.050781 5.015625 7.242188 Z M 5.015625 7.242188 "/>
<path style=" stroke:none;fill-rule:nonzero;fill:rgb(97.647059%,89.019608%,68.235296%);fill-opacity:1;" d="M 57.023438 5 L 32 5 L 32 61 C 32.367188 61.003906 32.730469 60.953125 33.089844 60.859375 L 51.53125 55.863281 C 53.144531 55.425781 54.320312 54.046875 54.484375 52.390625 L 59.035156 7.203125 C 59.152344 6.023438 58.21875 5 57.023438 5 Z M 57.023438 5 "/>
<path style=" stroke:none;fill-rule:nonzero;fill:rgb(15.686275%,27.450982%,29.411766%);fill-opacity:1;" d="M 32.023438 62 C 31.558594 62 31.09375 61.9375 30.640625 61.808594 L 13.105469 56.832031 C 11.152344 56.277344 9.730469 54.621094 9.488281 52.609375 L 4.019531 7.363281 C 3.917969 6.515625 4.1875 5.660156 4.753906 5.015625 C 5.328125 4.371094 6.152344 4 7.019531 4 L 57.027344 4 C 57.878906 4 58.699219 4.363281 59.269531 4.996094 C 59.835938 5.621094 60.113281 6.464844 60.03125 7.304688 L 55.480469 52.492188 C 55.273438 54.546875 53.789062 56.285156 51.789062 56.828125 L 33.351562 61.824219 C 32.914062 61.941406 32.472656 62 32.023438 62 Z M 7.019531 6 C 6.722656 6 6.449219 6.121094 6.253906 6.34375 C 6.058594 6.5625 5.972656 6.839844 6.007812 7.125 L 11.472656 52.371094 C 11.621094 53.578125 12.476562 54.574219 13.652344 54.90625 L 31.191406 59.882812 C 31.726562 60.035156 32.289062 60.039062 32.828125 59.894531 L 51.269531 54.898438 C 52.472656 54.570312 53.367188 53.523438 53.492188 52.292969 L 58.039062 7.105469 C 58.066406 6.820312 57.976562 6.550781 57.785156 6.335938 C 57.589844 6.117188 57.320312 6 57.023438 6 Z M 7.019531 6 "/>
<path style=" stroke:none;fill-rule:nonzero;fill:rgb(15.686275%,27.450982%,29.411766%);fill-opacity:1;" d="M 7 12 C 6.445312 12 6 11.554688 6 11 L 6 9 C 6 8.445312 6.445312 8 7 8 C 7.554688 8 8 8.445312 8 9 L 8 11 C 8 11.554688 7.554688 12 7 12 Z M 12 12 C 11.445312 12 11 11.554688 11 11 L 11 9 C 11 8.445312 11.445312 8 12 8 C 12.554688 8 13 8.445312 13 9 L 13 11 C 13 11.554688 12.554688 12 12 12 Z M 17 12 C 16.445312 12 16 11.554688 16 11 L 16 9 C 16 8.445312 16.445312 8 17 8 C 17.554688 8 18 8.445312 18 9 L 18 11 C 18 11.554688 17.554688 12 17 12 Z M 22 12 C 21.445312 12 21 11.554688 21 11 L 21 9 C 21 8.445312 21.445312 8 22 8 C 22.554688 8 23 8.445312 23 9 L 23 11 C 23 11.554688 22.554688 12 22 12 Z M 27 12 C 26.445312 12 26 11.554688 26 11 L 26 9 C 26 8.445312 26.445312 8 27 8 C 27.554688 8 28 8.445312 28 9 L 28 11 C 28 11.554688 27.554688 12 27 12 Z M 32 12 C 31.445312 12 31 11.554688 31 11 L 31 9 C 31 8.445312 31.445312 8 32 8 C 32.554688 8 33 8.445312 33 9 L 33 11 C 33 11.554688 32.554688 12 32 12 Z M 37 12 C 36.445312 12 36 11.554688 36 11 L 36 9 C 36 8.445312 36.445312 8 37 8 C 37.554688 8 38 8.445312 38 9 L 38 11 C 38 11.554688 37.554688 12 37 12 Z M 42 12 C 41.445312 12 41 11.554688 41 11 L 41 9 C 41 8.445312 41.445312 8 42 8 C 42.554688 8 43 8.445312 43 9 L 43 11 C 43 11.554688 42.554688 12 42 12 Z M 47 12 C 46.445312 12 46 11.554688 46 11 L 46 9 C 46 8.445312 46.445312 8 47 8 C 47.554688 8 48 8.445312 48 9 L 48 11 C 48 11.554688 47.554688 12 47 12 Z M 52 12 C 51.445312 12 51 11.554688 51 11 L 51 9 C 51 8.445312 51.445312 8 52 8 C 52.554688 8 53 8.445312 53 9 L 53 11 C 53 11.554688 52.554688 12 52 12 Z M 57 12 C 56.445312 12 56 11.554688 56 11 L 56 9 C 56 8.445312 56.445312 8 57 8 C 57.554688 8 58 8.445312 58 9 L 58 11 C 58 11.554688 57.554688 12 57 12 Z M 57 12 "/>
<path style=" stroke:none;fill-rule:nonzero;fill:rgb(98.039216%,93.725491%,87.058824%);fill-opacity:1;" d="M 47.019531 17 L 17 17 C 16.386719 17 15.917969 17.546875 16.011719 18.15625 L 18.53125 34.15625 C 18.609375 34.640625 19.027344 35 19.519531 35 L 38.832031 35 C 39.429688 35 39.894531 35.523438 39.824219 36.117188 L 39.054688 42.625 L 32.09375 44.746094 L 25.945312 42.664062 L 25.503906 39.84375 C 25.425781 39.359375 25.007812 39 24.515625 39 L 20.464844 39 C 19.851562 39 19.382812 39.550781 19.476562 40.15625 L 20.492188 46.59375 C 20.550781 46.957031 20.800781 47.257812 21.148438 47.375 L 31.703125 50.949219 C 31.804688 50.984375 31.90625 51 32.011719 51 C 32.109375 51 32.203125 50.984375 32.296875 50.957031 L 43.9375 47.410156 C 44.3125 47.296875 44.585938 46.972656 44.628906 46.582031 L 46.574219 30.117188 C 46.644531 29.523438 46.179688 29 45.582031 29 L 24.648438 29 C 24.15625 29 23.738281 28.640625 23.660156 28.15625 L 23.03125 24.15625 C 22.9375 23.550781 23.40625 23 24.019531 23 L 46.527344 23 C 47.035156 23 47.460938 22.621094 47.519531 22.117188 L 47.996094 18.097656 C 48.0625 17.515625 47.605469 17 47.019531 17 Z M 47.019531 17 "/>
<path style=" stroke:none;fill-rule:nonzero;fill:rgb(15.686275%,27.450982%,29.411766%);fill-opacity:1;" d="M 32.015625 52 C 31.804688 52 31.59375 51.964844 31.390625 51.898438 L 20.828125 48.320312 C 20.128906 48.085938 19.621094 47.484375 19.503906 46.753906 L 18.488281 40.3125 C 18.398438 39.734375 18.566406 39.144531 18.945312 38.699219 C 19.324219 38.257812 19.878906 38 20.464844 38 L 24.515625 38 C 25.507812 38 26.339844 38.710938 26.492188 39.691406 L 26.84375 41.914062 L 32.113281 43.695312 L 38.140625 41.859375 L 38.832031 36 L 19.519531 36 C 18.53125 36 17.699219 35.289062 17.546875 34.308594 L 15.023438 18.308594 C 14.933594 17.734375 15.097656 17.144531 15.480469 16.699219 C 15.859375 16.253906 16.414062 16 17 16 L 47.019531 16 C 47.585938 16 48.125 16.242188 48.5 16.664062 C 48.875 17.085938 49.054688 17.652344 48.988281 18.214844 L 48.511719 22.234375 C 48.394531 23.242188 47.539062 24 46.527344 24 L 24.019531 24 L 24.652344 28 L 45.582031 28 C 46.152344 28 46.699219 28.246094 47.078125 28.671875 C 47.457031 29.097656 47.636719 29.667969 47.570312 30.234375 L 45.625 46.699219 C 45.53125 47.484375 44.984375 48.136719 44.230469 48.367188 L 32.589844 51.914062 C 32.402344 51.972656 32.210938 52 32.015625 52 Z M 20.464844 40 L 21.480469 46.4375 L 32.023438 50.003906 L 43.648438 46.453125 L 45.582031 30 L 24.648438 30 C 23.65625 30 22.828125 29.289062 22.671875 28.308594 L 22.042969 24.3125 C 21.953125 23.734375 22.117188 23.144531 22.496094 22.699219 C 22.878906 22.257812 23.433594 22 24.019531 22 L 46.527344 22 L 47 18 L 17 18 L 19.519531 34 L 38.832031 34 C 39.402344 34 39.945312 34.246094 40.324219 34.671875 C 40.703125 35.097656 40.886719 35.667969 40.816406 36.234375 L 40.046875 42.742188 C 40 43.136719 39.726562 43.46875 39.347656 43.582031 L 32.386719 45.703125 C 32.183594 45.765625 31.972656 45.761719 31.773438 45.695312 L 25.628906 43.613281 C 25.273438 43.492188 25.019531 43.1875 24.960938 42.820312 L 24.515625 40 Z M 40 54.804688 C 39.558594 54.804688 39.15625 54.511719 39.035156 54.066406 C 38.890625 53.535156 39.203125 52.984375 39.738281 52.839844 L 41.738281 52.300781 C 42.273438 52.152344 42.820312 52.46875 42.964844 53.003906 C 43.109375 53.535156 42.796875 54.085938 42.261719 54.230469 L 40.261719 54.769531 C 40.175781 54.796875 40.085938 54.804688 40 54.804688 Z M 32.023438 57.003906 L 26.726562 55.5 C 26.195312 55.347656 25.886719 54.796875 26.039062 54.265625 C 26.1875 53.734375 26.738281 53.421875 27.273438 53.574219 L 32.035156 54.929688 L 35.738281 53.925781 C 36.273438 53.777344 36.820312 54.097656 36.964844 54.628906 C 37.109375 55.160156 36.796875 55.710938 36.261719 55.855469 Z M 32.023438 57.003906 "/>
<path style=" stroke:none;fill-rule:nonzero;fill:rgb(98.039216%,93.725491%,87.058824%);fill-opacity:1;" d="M 50.5 23 L 51.738281 25.261719 L 54 26.5 L 51.738281 27.738281 L 50.5 30 L 49.261719 27.738281 L 47 26.5 L 49.261719 25.261719 Z M 47.503906 47 L 48.378906 48.609375 L 50 49.503906 L 48.378906 50.378906 L 47.503906 52 L 46.609375 50.378906 L 45 49.503906 L 46.609375 48.609375 Z M 12.496094 35 L 13.027344 35.960938 L 13.988281 36.496094 L 13.027344 37.027344 L 12.496094 38 L 11.960938 37.027344 L 11 36.496094 L 11.960938 35.960938 Z M 12.496094 35 "/>
</g>
</svg>
