<svg xmlns="http://www.w3.org/2000/svg" xmlns:xlink="http://www.w3.org/1999/xlink" viewBox="0,0,256,256" width="91px" height="91px" fill-rule="nonzero"><g fill="none" fill-rule="nonzero" stroke="none" stroke-width="1" stroke-linecap="butt" stroke-linejoin="miter" stroke-miterlimit="10" stroke-dasharray="" stroke-dashoffset="0" font-family="none" font-weight="none" font-size="none" text-anchor="none" style="mix-blend-mode: normal"><g transform="scale(2.81319,2.81319)"><circle cx="45.081" cy="45.133" r="33.407" fill="#d4d4d6"></circle><path d="M45.419,90.57c-24.728,0 -44.846,-20.115 -44.846,-44.841c0,-24.726 20.118,-44.841 44.846,-44.841c24.727,0 44.843,20.116 44.843,44.842c0,24.726 -20.116,44.84 -44.843,44.84zM45.419,5.913c-21.957,0 -39.82,17.861 -39.82,39.816c0,21.954 17.863,39.815 39.82,39.815c21.955,0 39.817,-17.861 39.817,-39.815c0,-21.955 -17.862,-39.816 -39.817,-39.816z" fill="#d4d4d6"></path><path d="M26.309,67.352c-0.643,0 -1.286,-0.245 -1.776,-0.736c-0.981,-0.98 -0.981,-2.571 0,-3.553l38.217,-38.218c0.98,-0.982 2.572,-0.982 3.553,0c0.981,0.98 0.981,2.571 0,3.553l-38.218,38.217c-0.49,0.491 -1.134,0.737 -1.776,0.737z" fill="#f6f0ed"></path><path d="M64.526,67.352c-0.644,0 -1.286,-0.245 -1.776,-0.736l-38.218,-38.22c-0.981,-0.981 -0.981,-2.572 0,-3.553c0.981,-0.982 2.573,-0.981 3.553,0l38.218,38.22c0.981,0.981 0.981,2.572 0,3.553c-0.49,0.49 -1.134,0.736 -1.777,0.736z" fill="#f6f0ed"></path></g></g></svg>