<?xml version="1.0" encoding="UTF-8"?>
<svg xmlns="http://www.w3.org/2000/svg" xmlns:xlink="http://www.w3.org/1999/xlink" viewBox="0 0 64 64" width="64px" height="64px" shape-rendering="geometricPrecision">
<defs>
<linearGradient id="linear0" gradientUnits="userSpaceOnUse" x1="86" y1="26.361691" x2="86" y2="141.908066" gradientTransform="matrix(0.372093,0,0,0.372093,0,0)">
<stop offset="0" style="stop-color:rgb(19.607843%,40.392157%,44.313726%);stop-opacity:1;"/>
<stop offset="1" style="stop-color:rgb(17.254902%,54.901963%,60.000002%);stop-opacity:1;"/>
</linearGradient>
<linearGradient id="linear1" gradientUnits="userSpaceOnUse" x1="86" y1="26.361691" x2="86" y2="141.908066" >
<stop offset="0" style="stop-color:rgb(19.607843%,40.392157%,44.313726%);stop-opacity:1;"/>
<stop offset="1" style="stop-color:rgb(17.254902%,54.901963%,60.000002%);stop-opacity:1;"/>
</linearGradient>
<linearGradient id="linear2" gradientUnits="userSpaceOnUse" x1="86" y1="26.361691" x2="86" y2="141.908066" gradientTransform="matrix(0.372093,0,0,0.372093,0,0)">
<stop offset="0" style="stop-color:rgb(19.607843%,40.392157%,44.313726%);stop-opacity:1;"/>
<stop offset="1" style="stop-color:rgb(17.254902%,54.901963%,60.000002%);stop-opacity:1;"/>
</linearGradient>
<linearGradient id="linear3" gradientUnits="userSpaceOnUse" x1="119.59375" y1="65.015999" x2="119.59375" y2="81.958" >
<stop offset="0" style="stop-color:rgb(36.078432%,65.882355%,71.764708%);stop-opacity:1;"/>
<stop offset="1" style="stop-color:rgb(38.82353%,76.862746%,82.352942%);stop-opacity:1;"/>
</linearGradient>
</defs>
<g id="surface85634733">
<path style=" stroke:none;fill-rule:nonzero;fill:url(#linear0);" d="M 53 14 L 11 14 C 8.242188 14 6 16.242188 6 19 L 6 49 C 6 51.757812 8.242188 54 11 54 L 53 54 C 55.757812 54 58 51.757812 58 49 L 58 19 C 58 16.242188 55.757812 14 53 14 Z M 56 49 C 56 50.652344 54.652344 52 53 52 L 11 52 C 9.347656 52 8 50.652344 8 49 L 8 19 C 8 17.347656 9.347656 16 11 16 L 53 16 C 54.652344 16 56 17.347656 56 19 Z M 56 49 "/>
<path style=" stroke:none;fill-rule:nonzero;fill:url(#linear1);" d="M 12 10 L 52 10 L 52 12 L 12 12 Z M 12 10 "/>
<path style=" stroke:none;fill-rule:nonzero;fill:url(#linear2);" d="M 52 18 L 12 18 C 10.898438 18 10 18.898438 10 20 L 10 48 C 10 49.101562 10.898438 50 12 50 L 52 50 C 53.101562 50 54 49.101562 54 48 L 54 20 C 54 18.898438 53.101562 18 52 18 Z M 12 48 L 12 46 L 20 46 L 20 44 L 12 44 L 12 42 L 17 42 L 17 40 L 12 40 L 12 38 L 14 38 L 14 36 L 12 36 L 12 33 L 26 33 C 28.757812 33 31 35.242188 31 38 L 31 48 Z M 33 43 L 44 43 C 45.652344 43 47 44.347656 47 46 L 47 48 L 33 48 Z M 52 48 L 49 48 L 49 46 C 49 43.242188 46.757812 41 44 41 L 33 41 L 33 38 C 33 34.140625 29.859375 31 26 31 L 12 31 L 12 20 L 52 20 Z M 52 48 "/>
<path style=" stroke:none;fill-rule:nonzero;fill:url(#linear3);" d="M 48 27.5 C 48 29.433594 46.433594 31 44.5 31 C 42.566406 31 41 29.433594 41 27.5 C 41 25.566406 42.566406 24 44.5 24 C 46.433594 24 48 25.566406 48 27.5 Z M 48 27.5 "/>
</g>
</svg>
