<svg xmlns="http://www.w3.org/2000/svg"  viewBox="0 0 68 68" width="68px" height="68px"><path d="M 47.900391 2.3007812 C 43.900391 2.3007812 40.500781 4.6 38.800781 8 C 36.800781 8.3 35 9.6007812 34 11.300781 C 32.8 9.3007812 30.599609 7.9003906 28.099609 7.9003906 L 10.699219 7.9003906 C 8.3992187 7.9003906 6.5996094 9.7 6.5996094 12 L 6.5996094 12.199219 L 5.5 12.199219 C 3.6 12.199219 2 13.799219 2 15.699219 L 2 56.800781 C 2 58.700781 3.6 60.300781 5.5 60.300781 L 23.800781 60.300781 L 26.099609 64.099609 C 26.699609 65.199609 27.899609 65.800781 29.099609 65.800781 L 38.900391 65.800781 C 40.100391 65.800781 41.300391 65.199609 41.900391 64.099609 L 44.199219 60.300781 L 62.5 60.300781 C 64.4 60.300781 66 58.700781 66 56.800781 L 66 15.599609 C 66 13.699609 64.4 12.099609 62.5 12.099609 L 61.400391 12.099609 L 61.400391 12 C 61.400391 9.7 59.600781 7.9003906 57.300781 7.9003906 L 56.900391 7.9003906 C 55.300391 4.6003906 51.800391 2.3007813 47.900391 2.3007812 z M 47.800781 7.3007812 C 48.200781 7.3007812 48.600781 7.5003906 48.800781 7.9003906 C 49.000781 8.2003906 49.000391 8.6003906 48.900391 8.9003906 C 48.700391 9.3003906 48.300391 9.5996094 47.900391 9.5996094 C 47.400391 9.5996094 47.000391 9.3003906 46.900391 8.9003906 C 46.800391 8.6003906 46.8 8.2003906 47 7.9003906 C 47 7.5003906 47.400781 7.3007813 47.800781 7.3007812 z M 10.699219 9.9003906 L 28.099609 9.9003906 C 30.799609 9.9003906 33 12.100781 33 14.800781 L 33 48.099609 C 33 50.799609 30.799609 53 28.099609 53 L 10.699219 53 C 9.4992188 53 8.5996094 52.100391 8.5996094 50.900391 L 8.5996094 12.099609 L 8.5996094 12 C 8.5996094 10.8 9.4992188 9.9003906 10.699219 9.9003906 z M 57.699219 9.9003906 C 58.699219 10.100391 59.5 10.9 59.5 12 L 59.5 12.199219 L 59.5 51 C 59.5 52.2 58.600391 53.099609 57.400391 53.099609 L 39.900391 53.099609 C 37.200391 53.099609 35 50.899219 35 48.199219 L 35 14.800781 C 35 13.800781 35.300781 12.899609 35.800781 12.099609 C 36.300781 11.299609 37.1 10.599219 38 10.199219 C 37.9 10.799219 37.800781 11.399609 37.800781 12.099609 L 37.800781 12.300781 C 37.800781 16.800781 40.7 20.7 45 22 L 46.800781 26.199219 C 47.000781 26.599219 47.400391 26.900391 47.900391 26.900391 C 48.400391 26.900391 48.8 26.599219 49 26.199219 L 50.800781 22 C 55.100781 20.7 58 16.900781 58 12.300781 L 58 12.099609 C 58 11.299609 57.899219 10.600391 57.699219 9.9003906 z M 46.599609 10.699219 L 48.599609 10.699219 C 48.699609 10.699219 48.800781 10.800391 48.800781 10.900391 L 48.800781 15 L 49.400391 15 C 49.500391 15 49.599609 15.099219 49.599609 15.199219 L 49.599609 16.5 C 49.599609 16.6 49.500391 16.699219 49.400391 16.699219 L 46.599609 16.699219 C 46.499609 16.699219 46.400391 16.6 46.400391 16.5 L 46.400391 15.199219 C 46.400391 15.099219 46.499609 15 46.599609 15 L 47.099609 15 L 47.099609 12.400391 L 46.599609 12.400391 C 46.499609 12.400391 46.400391 12.299219 46.400391 12.199219 L 46.400391 10.900391 C 46.400391 10.800391 46.499609 10.699219 46.599609 10.699219 z M 13.400391 15.599609 C 12.800391 15.599609 12.400391 15.999609 12.400391 16.599609 C 12.400391 17.099609 12.800391 17.599609 13.400391 17.599609 L 28.300781 17.599609 C 28.900781 17.599609 29.300781 17.099609 29.300781 16.599609 C 29.300781 15.999609 28.900781 15.599609 28.300781 15.599609 L 13.400391 15.599609 z M 13.400391 23 C 12.800391 23 12.400391 23.5 12.400391 24 C 12.400391 24.5 12.800391 25 13.400391 25 L 28.300781 25 C 28.900781 25 29.300781 24.5 29.300781 24 C 29.300781 23.5 28.900781 23 28.300781 23 L 13.400391 23 z M 13.400391 30.5 C 12.800391 30.5 12.400391 31 12.400391 31.5 C 12.400391 32 12.800391 32.5 13.400391 32.5 L 28.300781 32.5 C 28.900781 32.5 29.300781 32 29.300781 31.5 C 29.300781 31 28.900781 30.5 28.300781 30.5 L 13.400391 30.5 z M 39.800781 30.5 C 39.200781 30.5 38.800781 31 38.800781 31.5 C 38.800781 32 39.200781 32.5 39.800781 32.5 L 54.699219 32.5 C 55.299219 32.5 55.699219 32 55.699219 31.5 C 55.699219 31 55.299219 30.5 54.699219 30.5 L 39.800781 30.5 z M 13.400391 37.900391 C 12.800391 37.900391 12.400391 38.300391 12.400391 38.900391 C 12.400391 39.500391 12.800391 39.900391 13.400391 39.900391 L 28.300781 39.900391 C 28.900781 39.900391 29.300781 39.400391 29.300781 38.900391 C 29.300781 38.300391 28.900781 37.900391 28.300781 37.900391 L 13.400391 37.900391 z M 39.800781 37.900391 C 39.200781 37.900391 38.800781 38.300391 38.800781 38.900391 C 38.800781 39.500391 39.200781 39.900391 39.800781 39.900391 L 54.699219 39.900391 C 55.299219 39.900391 55.699219 39.400391 55.699219 38.900391 C 55.699219 38.300391 55.299219 37.900391 54.699219 37.900391 L 39.800781 37.900391 z M 13.400391 45.400391 C 12.800391 45.400391 12.400391 45.800391 12.400391 46.400391 C 12.400391 46.900391 12.800391 47.400391 13.400391 47.400391 L 28.300781 47.400391 C 28.900781 47.400391 29.300781 47.000391 29.300781 46.400391 C 29.300781 45.800391 28.900781 45.400391 28.300781 45.400391 L 13.400391 45.400391 z M 39.800781 45.400391 C 39.200781 45.400391 38.800781 45.800391 38.800781 46.400391 C 38.800781 46.900391 39.200781 47.400391 39.800781 47.400391 L 54.699219 47.400391 C 55.299219 47.400391 55.699219 47.000391 55.699219 46.400391 C 55.699219 45.800391 55.299219 45.400391 54.699219 45.400391 L 39.800781 45.400391 z"/></svg>