<?xml version="1.0" encoding="UTF-8"?>
<svg xmlns="http://www.w3.org/2000/svg" xmlns:xlink="http://www.w3.org/1999/xlink" viewBox="0 0 64 64" width="64px" height="64px">
<g id="surface87373469">
<path style=" stroke:none;fill-rule:nonzero;fill:rgb(96.470588%,82.745099%,59.215689%);fill-opacity:1;" d="M 51 7 L 13 7 C 9.691406 7 7 9.691406 7 13 L 7 51 C 7 54.308594 9.691406 57 13 57 L 51 57 C 54.308594 57 57 54.308594 57 51 L 57 13 C 57 9.691406 54.308594 7 51 7 Z M 45.878906 52 C 43.121094 52 41.03125 50.890625 39.679688 48.710938 L 41.441406 47.5 C 42.28125 48.75 43.539062 50.101562 45.78125 50.101562 C 48.351562 50.101562 49.5 48.511719 49.5 46.929688 C 49.5 44.679688 47.789062 43.910156 45.96875 43.101562 L 44.898438 42.628906 C 41.570312 41.179688 40.328125 39.628906 40.328125 36.921875 C 40.328125 34.050781 42.460938 32.121094 45.628906 32.121094 C 47.789062 32.121094 49.261719 32.789062 50.371094 34.339844 L 48.679688 35.449219 C 47.878906 34.421875 46.910156 33.949219 45.628906 33.949219 C 43.859375 33.949219 42.570312 35.160156 42.570312 36.828125 C 42.570312 38.828125 43.96875 39.601562 45.808594 40.421875 L 46.890625 40.890625 C 50.761719 42.589844 52 44.039062 52 46.878906 C 52 50.648438 48.839844 52 45.878906 52 Z M 27.269531 52 C 24.609375 52 22.488281 50.46875 21.351562 48.75 L 23.371094 47.550781 C 24.320312 48.761719 25.558594 49.390625 27 49.390625 C 29.238281 49.390625 30.328125 48.148438 30.328125 45.601562 L 30.328125 32.121094 L 33 32.121094 L 33 46.300781 C 33 51.011719 29.890625 52 27.269531 52 Z M 27.269531 52 "/>
<path style=" stroke:none;fill-rule:nonzero;fill:rgb(97.647059%,89.019608%,68.235296%);fill-opacity:1;" d="M 11 7 L 53 7 C 55.210938 7 57 8.789062 57 11 C 57 12.65625 55.65625 14 54 14 L 10 14 C 8.34375 14 7 12.65625 7 11 C 7 8.789062 8.789062 7 11 7 Z M 11 7 "/>
<path style=" stroke:none;fill-rule:nonzero;fill:rgb(15.686275%,27.450982%,29.411766%);fill-opacity:1;" d="M 51.425781 58 L 12.578125 58 C 8.949219 58 6 55.050781 6 51.421875 L 6 12.578125 C 6 8.949219 8.949219 6 12.578125 6 L 51.425781 6 C 55.050781 6 58 8.949219 58 12.574219 L 58 51.425781 C 58 55.050781 55.050781 58 51.425781 58 Z M 12.578125 8 C 10.054688 8 8 10.054688 8 12.578125 L 8 51.421875 C 8 53.945312 10.054688 56 12.578125 56 L 51.425781 56 C 53.945312 56 56 53.945312 56 51.425781 L 56 12.574219 C 56 10.054688 53.945312 8 51.425781 8 Z M 12.578125 8 "/>
<path style=" stroke:none;fill-rule:nonzero;fill:rgb(15.686275%,27.450982%,29.411766%);fill-opacity:1;" d="M 47.691406 39.058594 L 46.621094 38.589844 C 44.738281 37.761719 44.570312 37.460938 44.570312 36.828125 C 44.570312 36.28125 44.96875 35.949219 45.628906 35.949219 C 46.371094 35.949219 46.890625 36.171875 47.519531 37.308594 C 47.648438 37.558594 47.878906 37.738281 48.148438 37.800781 C 48.421875 37.871094 48.710938 37.820312 48.941406 37.671875 L 52.289062 35.46875 C 52.730469 35.179688 52.871094 34.609375 52.609375 34.148438 C 51.078125 31.398438 48.859375 30.121094 45.628906 30.121094 C 41.398438 30.121094 38.328125 32.980469 38.328125 36.921875 C 38.328125 41.351562 41.25 43.21875 44.089844 44.460938 L 45.160156 44.929688 C 47.269531 45.871094 47.5 46.171875 47.5 46.929688 C 47.5 47.898438 46.558594 48.101562 45.78125 48.101562 C 44.230469 48.101562 43.480469 47.050781 42.601562 45.578125 C 42.460938 45.339844 42.21875 45.171875 41.949219 45.109375 C 41.691406 45.050781 41.398438 45.109375 41.179688 45.261719 L 37.800781 47.570312 C 37.390625 47.851562 37.238281 48.390625 37.460938 48.839844 C 39.140625 52.210938 42.050781 54 45.878906 54 C 50.808594 54 54 51.199219 54 46.878906 C 54 42.671875 51.578125 40.761719 47.691406 39.058594 Z M 45.878906 52 C 43.121094 52 41.03125 50.890625 39.679688 48.710938 L 41.441406 47.5 C 42.28125 48.75 43.539062 50.101562 45.78125 50.101562 C 48.351562 50.101562 49.5 48.511719 49.5 46.929688 C 49.5 44.679688 47.789062 43.910156 45.96875 43.101562 L 44.898438 42.628906 C 41.570312 41.179688 40.328125 39.628906 40.328125 36.921875 C 40.328125 34.050781 42.460938 32.121094 45.628906 32.121094 C 47.789062 32.121094 49.261719 32.789062 50.371094 34.339844 L 48.679688 35.449219 C 47.878906 34.421875 46.910156 33.949219 45.628906 33.949219 C 43.859375 33.949219 42.570312 35.160156 42.570312 36.828125 C 42.570312 38.828125 43.96875 39.601562 45.808594 40.421875 L 46.890625 40.890625 C 50.761719 42.589844 52 44.039062 52 46.878906 C 52 50.648438 48.839844 52 45.878906 52 Z M 45.878906 52 "/>
<path style=" stroke:none;fill-rule:nonzero;fill:rgb(17.254902%,54.901963%,60.000002%);fill-opacity:1;" d="M 52 46.878906 C 52 50.648438 48.839844 52 45.878906 52 C 43.121094 52 41.03125 50.890625 39.679688 48.710938 L 41.441406 47.5 C 42.28125 48.75 43.539062 50.101562 45.78125 50.101562 C 48.351562 50.101562 49.5 48.511719 49.5 46.929688 C 49.5 44.679688 47.789062 43.910156 45.96875 43.101562 L 44.898438 42.628906 C 41.570312 41.179688 40.328125 39.628906 40.328125 36.921875 C 40.328125 34.050781 42.460938 32.121094 45.628906 32.121094 C 47.789062 32.121094 49.261719 32.789062 50.371094 34.339844 L 48.679688 35.449219 C 47.878906 34.421875 46.910156 33.949219 45.628906 33.949219 C 43.859375 33.949219 42.570312 35.160156 42.570312 36.828125 C 42.570312 38.828125 43.96875 39.601562 45.808594 40.421875 L 46.890625 40.890625 C 50.761719 42.589844 52 44.039062 52 46.878906 Z M 52 46.878906 "/>
<path style=" stroke:none;fill-rule:nonzero;fill:rgb(15.686275%,27.450982%,29.411766%);fill-opacity:1;" d="M 34 30.121094 L 29.328125 30.121094 C 28.78125 30.121094 28.328125 30.570312 28.328125 31.121094 L 28.328125 45.601562 C 28.328125 47.390625 27.800781 47.390625 27 47.390625 C 26 47.390625 25.171875 46.828125 24.539062 45.710938 C 24.398438 45.46875 24.179688 45.300781 23.921875 45.230469 C 23.660156 45.171875 23.378906 45.210938 23.148438 45.339844 L 19.488281 47.53125 C 19.039062 47.800781 18.878906 48.359375 19.101562 48.820312 C 20.238281 51.210938 23.070312 54 27.269531 54 C 32.109375 54 35 51.121094 35 46.300781 L 35 31.121094 C 35 30.570312 34.550781 30.121094 34 30.121094 Z M 33 46.300781 C 33 51.011719 29.890625 52 27.269531 52 C 24.609375 52 22.488281 50.46875 21.351562 48.75 L 23.371094 47.550781 C 24.320312 48.761719 25.558594 49.390625 27 49.390625 C 29.238281 49.390625 30.328125 48.148438 30.328125 45.601562 L 30.328125 32.121094 L 33 32.121094 Z M 33 46.300781 "/>
<path style=" stroke:none;fill-rule:nonzero;fill:rgb(17.254902%,54.901963%,60.000002%);fill-opacity:1;" d="M 33 32.121094 L 33 46.300781 C 33 51.011719 29.890625 52 27.269531 52 C 24.609375 52 22.488281 50.46875 21.351562 48.75 L 23.371094 47.550781 C 24.320312 48.761719 25.558594 49.390625 27 49.390625 C 29.238281 49.390625 30.328125 48.148438 30.328125 45.601562 L 30.328125 32.121094 Z M 33 32.121094 "/>
<path style=" stroke:none;fill-rule:nonzero;fill:rgb(15.686275%,27.450982%,29.411766%);fill-opacity:1;" d="M 17 12 C 16.449219 12 16 12.449219 16 13 L 16 15 C 16 15.550781 16.449219 16 17 16 C 17.550781 16 18 15.550781 18 15 L 18 13 C 18 12.449219 17.550781 12 17 12 Z M 12 12 C 11.449219 12 11 12.449219 11 13 L 11 15 C 11 15.550781 11.449219 16 12 16 C 12.550781 16 13 15.550781 13 15 L 13 13 C 13 12.449219 12.550781 12 12 12 Z M 32 12 C 31.449219 12 31 12.449219 31 13 L 31 15 C 31 15.550781 31.449219 16 32 16 C 32.550781 16 33 15.550781 33 15 L 33 13 C 33 12.449219 32.550781 12 32 12 Z M 37 12 C 36.449219 12 36 12.449219 36 13 L 36 15 C 36 15.550781 36.449219 16 37 16 C 37.550781 16 38 15.550781 38 15 L 38 13 C 38 12.449219 37.550781 12 37 12 Z M 42 12 C 41.449219 12 41 12.449219 41 13 L 41 15 C 41 15.550781 41.449219 16 42 16 C 42.550781 16 43 15.550781 43 15 L 43 13 C 43 12.449219 42.550781 12 42 12 Z M 47 12 C 46.449219 12 46 12.449219 46 13 L 46 15 C 46 15.550781 46.449219 16 47 16 C 47.550781 16 48 15.550781 48 15 L 48 13 C 48 12.449219 47.550781 12 47 12 Z M 52 12 C 51.449219 12 51 12.449219 51 13 L 51 15 C 51 15.550781 51.449219 16 52 16 C 52.550781 16 53 15.550781 53 15 L 53 13 C 53 12.449219 52.550781 12 52 12 Z M 22 12 C 21.449219 12 21 12.449219 21 13 L 21 15 C 21 15.550781 21.449219 16 22 16 C 22.550781 16 23 15.550781 23 15 L 23 13 C 23 12.449219 22.550781 12 22 12 Z M 27 12 C 26.449219 12 26 12.449219 26 13 L 26 15 C 26 15.550781 26.449219 16 27 16 C 27.550781 16 28 15.550781 28 15 L 28 13 C 28 12.449219 27.550781 12 27 12 Z M 27 12 "/>
</g>
</svg>
