<?xml version="1.0" encoding="UTF-8"?>
<svg xmlns="http://www.w3.org/2000/svg" xmlns:xlink="http://www.w3.org/1999/xlink" viewBox="0 0 64 64" width="64px" height="64px">
<defs>
<linearGradient id="linear0" gradientUnits="userSpaceOnUse" x1="98.598999" y1="21.835939" x2="98.598999" y2="150.835938" gradientTransform="matrix(0.372093,0,0,0.372093,0,0)">
<stop offset="0" style="stop-color:rgb(19.607843%,40.392157%,44.313726%);stop-opacity:1;"/>
<stop offset="1" style="stop-color:rgb(17.254902%,54.901963%,60.000002%);stop-opacity:1;"/>
</linearGradient>
<linearGradient id="linear1" gradientUnits="userSpaceOnUse" x1="127.320312" y1="21.835939" x2="127.320312" y2="150.835938" gradientTransform="matrix(0.372093,0,0,0.372093,0,0)">
<stop offset="0" style="stop-color:rgb(19.607843%,40.392157%,44.313726%);stop-opacity:1;"/>
<stop offset="1" style="stop-color:rgb(17.254902%,54.901963%,60.000002%);stop-opacity:1;"/>
</linearGradient>
<linearGradient id="linear2" gradientUnits="userSpaceOnUse" x1="41.140251" y1="21.835939" x2="41.140251" y2="150.835938" gradientTransform="matrix(0.372093,0,0,0.372093,0,0)">
<stop offset="0" style="stop-color:rgb(19.607843%,40.392157%,44.313726%);stop-opacity:1;"/>
<stop offset="1" style="stop-color:rgb(17.254902%,54.901963%,60.000002%);stop-opacity:1;"/>
</linearGradient>
<linearGradient id="linear3" gradientUnits="userSpaceOnUse" x1="110.832497" y1="21.835939" x2="110.832497" y2="150.835938" gradientTransform="matrix(0.372093,0,0,0.372093,0,0)">
<stop offset="0" style="stop-color:rgb(19.607843%,40.392157%,44.313726%);stop-opacity:1;"/>
<stop offset="1" style="stop-color:rgb(17.254902%,54.901963%,60.000002%);stop-opacity:1;"/>
</linearGradient>
<linearGradient id="linear4" gradientUnits="userSpaceOnUse" x1="24.1875" y1="21.835939" x2="24.1875" y2="150.835938" gradientTransform="matrix(0.372093,0,0,0.372093,0,0)">
<stop offset="0" style="stop-color:rgb(19.607843%,40.392157%,44.313726%);stop-opacity:1;"/>
<stop offset="1" style="stop-color:rgb(17.254902%,54.901963%,60.000002%);stop-opacity:1;"/>
</linearGradient>
<linearGradient id="linear5" gradientUnits="userSpaceOnUse" x1="66.789749" y1="21.835939" x2="66.789749" y2="150.835938" gradientTransform="matrix(0.372093,0,0,0.372093,0,0)">
<stop offset="0" style="stop-color:rgb(19.607843%,40.392157%,44.313726%);stop-opacity:1;"/>
<stop offset="1" style="stop-color:rgb(17.254902%,54.901963%,60.000002%);stop-opacity:1;"/>
</linearGradient>
<linearGradient id="linear6" gradientUnits="userSpaceOnUse" x1="97.389633" y1="21.835939" x2="97.389633" y2="150.835938" gradientTransform="matrix(0.372093,0,0,0.372093,0,0)">
<stop offset="0" style="stop-color:rgb(19.607843%,40.392157%,44.313726%);stop-opacity:1;"/>
<stop offset="1" style="stop-color:rgb(17.254902%,54.901963%,60.000002%);stop-opacity:1;"/>
</linearGradient>
<linearGradient id="linear7" gradientUnits="userSpaceOnUse" x1="128.438309" y1="21.835939" x2="128.438309" y2="150.835938" gradientTransform="matrix(0.372093,0,0,0.372093,0,0)">
<stop offset="0" style="stop-color:rgb(19.607843%,40.392157%,44.313726%);stop-opacity:1;"/>
<stop offset="1" style="stop-color:rgb(17.254902%,54.901963%,60.000002%);stop-opacity:1;"/>
</linearGradient>
<linearGradient id="linear8" gradientUnits="userSpaceOnUse" x1="36.993439" y1="21.835939" x2="36.993439" y2="150.835938" gradientTransform="matrix(0.372093,0,0,0.372093,0,0)">
<stop offset="0" style="stop-color:rgb(19.607843%,40.392157%,44.313726%);stop-opacity:1;"/>
<stop offset="1" style="stop-color:rgb(17.254902%,54.901963%,60.000002%);stop-opacity:1;"/>
</linearGradient>
<linearGradient id="linear9" gradientUnits="userSpaceOnUse" x1="117.153503" y1="49.143631" x2="117.153503" y2="58.46656" gradientTransform="matrix(0.372093,0,0,0.372093,0,0)">
<stop offset="0" style="stop-color:rgb(36.078432%,65.882355%,71.764708%);stop-opacity:1;"/>
<stop offset="1" style="stop-color:rgb(38.82353%,76.862746%,82.352942%);stop-opacity:1;"/>
</linearGradient>
<linearGradient id="linear10" gradientUnits="userSpaceOnUse" x1="90.332253" y1="82.124619" x2="90.332253" y2="103.44725" gradientTransform="matrix(0.372093,0,0,0.372093,0,0)">
<stop offset="0" style="stop-color:rgb(36.078432%,65.882355%,71.764708%);stop-opacity:1;"/>
<stop offset="1" style="stop-color:rgb(38.82353%,76.862746%,82.352942%);stop-opacity:1;"/>
</linearGradient>
<linearGradient id="linear11" gradientUnits="userSpaceOnUse" x1="48.05788" y1="111.230247" x2="48.05788" y2="124.081879" gradientTransform="matrix(0.372093,0,0,0.372093,0,0)">
<stop offset="0" style="stop-color:rgb(36.078432%,65.882355%,71.764708%);stop-opacity:1;"/>
<stop offset="1" style="stop-color:rgb(38.82353%,76.862746%,82.352942%);stop-opacity:1;"/>
</linearGradient>
</defs>
<g id="surface87373997">
<path style=" stroke:none;fill-rule:nonzero;fill:url(#linear0);" d="M 18.375 56 C 17.851562 56 17.410156 55.59375 17.378906 55.066406 C 17.339844 54.515625 17.757812 54.039062 18.308594 54.003906 L 51.808594 51.808594 L 54.003906 18.238281 C 54.039062 17.6875 54.496094 17.269531 55.066406 17.304688 C 55.617188 17.339844 56.035156 17.816406 55.996094 18.367188 L 53.746094 52.816406 C 53.714844 53.316406 53.316406 53.714844 52.816406 53.75 L 18.441406 56 C 18.417969 56 18.394531 56 18.375 56 Z M 18.375 56 "/>
<path style=" stroke:none;fill-rule:nonzero;fill:url(#linear1);" d="M 52.75 53.75 C 52.511719 53.75 52.269531 53.664062 52.078125 53.492188 L 41.328125 43.742188 C 40.917969 43.371094 40.890625 42.738281 41.261719 42.328125 C 41.632812 41.917969 42.265625 41.886719 42.671875 42.257812 L 53.421875 52.007812 C 53.832031 52.378906 53.859375 53.011719 53.488281 53.421875 C 53.292969 53.640625 53.023438 53.75 52.75 53.75 Z M 52.75 53.75 "/>
<path style=" stroke:none;fill-rule:nonzero;fill:url(#linear2);" d="M 18.519531 55.960938 C 18.132812 55.960938 17.761719 55.730469 17.597656 55.351562 L 11.175781 40.304688 C 10.960938 39.796875 11.195312 39.207031 11.703125 38.988281 C 12.207031 38.773438 12.800781 39.007812 13.015625 39.515625 L 19.4375 54.566406 C 19.65625 55.074219 19.417969 55.660156 18.910156 55.878906 C 18.78125 55.933594 18.648438 55.960938 18.519531 55.960938 Z M 18.519531 55.960938 "/>
<path style=" stroke:none;fill-rule:nonzero;fill:url(#linear3);" d="M 47.628906 10.152344 C 47.625 10.152344 47.621094 10.152344 47.617188 10.152344 L 34.839844 10 C 34.285156 9.992188 33.84375 9.539062 33.851562 8.988281 C 33.859375 8.4375 34.261719 8.003906 34.863281 8 L 47.640625 8.152344 C 48.191406 8.160156 48.636719 8.613281 48.628906 9.164062 C 48.621094 9.714844 48.175781 10.152344 47.628906 10.152344 Z M 47.628906 10.152344 "/>
<path style=" stroke:none;fill-rule:nonzero;fill:url(#linear4);" d="M 9 46.804688 C 8.445312 46.804688 8 46.359375 8 45.804688 L 8 32.449219 C 8 31.894531 8.445312 31.449219 9 31.449219 C 9.554688 31.449219 10 31.894531 10 32.449219 L 10 45.804688 C 10 46.359375 9.554688 46.804688 9 46.804688 Z M 9 46.804688 "/>
<path style=" stroke:none;fill-rule:nonzero;fill:url(#linear5);" d="M 12.121094 40.964844 C 11.722656 40.964844 11.355469 40.730469 11.195312 40.347656 L 8.074219 32.828125 C 7.957031 32.542969 7.976562 32.214844 8.136719 31.945312 L 14.457031 21.058594 C 14.507812 20.976562 14.566406 20.898438 14.640625 20.832031 L 24.128906 11.964844 C 24.226562 11.871094 24.34375 11.800781 24.46875 11.753906 L 34.507812 8.0625 C 34.816406 7.949219 35.15625 7.992188 35.425781 8.179688 L 41.277344 12.285156 C 41.636719 12.535156 41.789062 12.988281 41.660156 13.40625 L 37.921875 25.3125 C 37.871094 25.476562 37.777344 25.625 37.648438 25.742188 L 24.402344 38.085938 C 24.273438 38.207031 24.113281 38.292969 23.941406 38.332031 L 12.339844 40.941406 C 12.269531 40.957031 12.191406 40.964844 12.121094 40.964844 Z M 10.113281 32.523438 L 12.722656 38.804688 L 23.238281 36.441406 L 36.09375 24.460938 L 39.53125 13.503906 L 34.707031 10.117188 L 25.347656 13.5625 L 16.113281 22.191406 Z M 10.113281 32.523438 "/>
<path style=" stroke:none;fill-rule:nonzero;fill:url(#linear6);" d="M 18.519531 55.953125 C 18.222656 55.953125 17.9375 55.820312 17.746094 55.585938 C 17.535156 55.328125 17.464844 54.984375 17.5625 54.664062 L 22.867188 37.035156 C 22.945312 36.78125 23.121094 36.566406 23.359375 36.441406 C 23.59375 36.316406 23.871094 36.292969 24.125 36.371094 L 40.542969 41.496094 L 36.027344 25.308594 C 35.949219 25.019531 36.003906 24.707031 36.175781 24.460938 C 36.347656 24.21875 36.625 24.0625 36.925781 24.042969 L 53.890625 22.902344 C 54.21875 22.875 54.539062 23.023438 54.746094 23.28125 C 54.949219 23.539062 55.011719 23.886719 54.914062 24.199219 C 52.65625 31.394531 48.664062 37.773438 42.707031 43.707031 C 42.707031 43.707031 42.707031 43.710938 42.703125 43.710938 C 35.363281 51.015625 27.261719 55.132812 18.613281 55.949219 C 18.582031 55.949219 18.550781 55.953125 18.519531 55.953125 Z M 24.492188 38.582031 L 19.914062 53.78125 C 27.070312 52.765625 33.847656 49.296875 40.09375 43.453125 Z M 38.285156 25.953125 L 42.496094 41.058594 C 47.1875 36.105469 50.488281 30.824219 52.539062 24.996094 Z M 38.285156 25.953125 "/>
<path style=" stroke:none;fill-rule:nonzero;fill:url(#linear7);" d="M 53.910156 24.992188 C 53.679688 24.992188 53.457031 24.914062 53.277344 24.765625 L 39.960938 13.84375 C 39.703125 13.632812 39.566406 13.308594 39.597656 12.980469 C 39.628906 12.648438 39.820312 12.355469 40.109375 12.195312 L 47.144531 8.277344 C 47.34375 8.167969 47.574219 8.128906 47.796875 8.167969 C 50.96875 8.710938 53.261719 10.125 54.617188 12.378906 C 56.964844 16.289062 55.777344 21.527344 54.859375 24.304688 C 54.753906 24.617188 54.503906 24.859375 54.1875 24.949219 C 54.097656 24.980469 54.003906 24.992188 53.910156 24.992188 Z M 42.363281 13.230469 L 53.375 22.261719 C 53.988281 19.878906 54.53125 16.117188 52.902344 13.410156 C 51.90625 11.757812 50.191406 10.679688 47.800781 10.203125 Z M 42.363281 13.230469 "/>
<path style=" stroke:none;fill-rule:nonzero;fill:url(#linear8);" d="M 18.53125 55.984375 C 18.519531 55.984375 18.511719 55.984375 18.503906 55.984375 C 15.671875 55.90625 8.277344 55.691406 8 45.753906 C 7.996094 45.578125 8.035156 45.402344 8.121094 45.25 L 11.25 39.511719 C 11.433594 39.175781 11.777344 38.984375 12.175781 38.992188 C 12.558594 39.011719 12.898438 39.246094 13.046875 39.597656 L 19.449219 54.59375 C 19.585938 54.90625 19.550781 55.269531 19.355469 55.550781 C 19.171875 55.824219 18.859375 55.984375 18.53125 55.984375 Z M 10.007812 45.964844 C 10.289062 52.507812 14.078125 53.660156 16.984375 53.910156 L 12.019531 42.28125 Z M 10.007812 45.964844 "/>
<path style=" stroke:none;fill-rule:nonzero;fill:url(#linear9);" d="M 41.132812 21.753906 L 42.222656 18.285156 L 46.050781 21.425781 Z M 41.132812 21.753906 "/>
<path style=" stroke:none;fill-rule:nonzero;fill:url(#linear10);" d="M 29.59375 35.984375 L 35.414062 30.558594 L 37.628906 38.492188 Z M 29.59375 35.984375 "/>
<path style=" stroke:none;fill-rule:nonzero;fill:url(#linear11);" d="M 16.292969 42.101562 L 19.46875 41.386719 L 18.027344 46.171875 Z M 16.292969 42.101562 "/>
</g>
</svg>
