<?xml version="1.0" encoding="UTF-8"?>
<svg xmlns="http://www.w3.org/2000/svg" xmlns:xlink="http://www.w3.org/1999/xlink" viewBox="0 0 64 64" width="64px" height="64px">
<g id="surface89580154">
<path style=" stroke:none;fill-rule:nonzero;fill:rgb(92.941177%,47.058824%,60.000002%);fill-opacity:1;" d="M 38.25 3 C 55 4 59 5 57 19 C 55 33 35.902344 54.351562 14 58 C 14 58 -0.972656 61 4.015625 31 Z M 38.25 3 "/>
<path style=" stroke:none;fill-rule:nonzero;fill:rgb(97.647059%,54.901963%,70.19608%);fill-opacity:1;" d="M 3 31 L 3 45 L 8.921875 36.722656 Z M 8.921875 37.0625 L 14 57 L 22.3125 34.3125 Z M 23 34 L 42 42 L 36 22 Z M 33 4 L 40 9 L 46 3 L 33 3 Z M 37 22 L 40 9 L 58 15 Z M 37 22 "/>
<path style=" stroke:none;fill-rule:nonzero;fill:rgb(92.941177%,47.058824%,60.000002%);fill-opacity:1;" d="M 41.636719 43.890625 C 42.855469 42.53125 56.046875 27.675781 57 21 L 56 56 L 23 57 L 41.4375 44.066406 C 41.511719 44.015625 41.578125 43.957031 41.636719 43.890625 Z M 41.636719 43.890625 "/>
<path style=" stroke:none;fill-rule:nonzero;fill:rgb(87.843138%,40.392157%,56.078434%);fill-opacity:1;" d="M 43 43 L 55.5 55.5 L 21 58 Z M 43 43 "/>
<path style=" stroke:none;fill-rule:nonzero;fill:rgb(92.941177%,47.058824%,60.000002%);fill-opacity:1;" d="M 4.539062 28.097656 L 8.886719 20.488281 C 9.0625 20.179688 9.28125 19.894531 9.53125 19.644531 L 19.519531 9.660156 C 19.820312 9.355469 20.171875 9.101562 20.558594 8.910156 L 29.9375 4.21875 C 31.222656 3.578125 32.75 3.671875 33.945312 4.46875 L 38.011719 7.179688 C 39.515625 8.179688 40.160156 10.0625 39.589844 11.773438 L 36.441406 21.21875 C 36.21875 21.886719 35.824219 22.480469 35.304688 22.945312 L 23.058594 33.828125 C 22.550781 34.28125 21.933594 34.59375 21.269531 34.742188 L 11.265625 36.964844 C 9.777344 37.296875 8.226562 36.753906 7.273438 35.558594 L 4.890625 32.578125 C 3.863281 31.296875 3.726562 29.519531 4.539062 28.097656 Z M 4.539062 28.097656 "/>
<path style=" stroke:none;fill-rule:nonzero;fill:rgb(65.098041%,8.235294%,39.215687%);fill-opacity:1;" d="M 38.191406 25.8125 C 38.035156 25.28125 37.480469 24.976562 36.949219 25.132812 C 36.421875 25.289062 36.117188 25.84375 36.273438 26.375 L 37.015625 28.914062 C 37.144531 29.351562 37.542969 29.632812 37.976562 29.632812 C 38.070312 29.632812 38.164062 29.621094 38.257812 29.59375 C 38.789062 29.4375 39.089844 28.882812 38.9375 28.351562 Z M 38.191406 25.8125 "/>
<path style=" stroke:none;fill-rule:nonzero;fill:rgb(65.098041%,8.235294%,39.215687%);fill-opacity:1;" d="M 58.816406 11.96875 C 58.773438 11.601562 58.71875 11.238281 58.648438 10.890625 C 58.640625 10.890625 58.640625 10.878906 58.648438 10.871094 C 58.441406 9.859375 58.128906 8.921875 57.71875 8.058594 C 57.21875 7.019531 56.570312 6.078125 55.761719 5.269531 C 53.628906 3.140625 50.648438 2.058594 46.898438 2.058594 C 46.648438 2.058594 33.738281 2.058594 33.738281 2.058594 C 32.609375 2.058594 31.488281 2.339844 30.488281 2.859375 C 30.488281 2.859375 29.671875 3.238281 29.488281 3.328125 L 20.109375 8.019531 C 19.628906 8.261719 19.191406 8.570312 18.808594 8.949219 L 8.828125 18.941406 C 8.511719 19.25 8.238281 19.609375 8.019531 19.988281 L 3.03125 28.808594 C 2.378906 29.898438 2.03125 31.140625 2.03125 32.410156 L 2.097656 45.914062 C 2.050781 46.746094 2.046875 47.550781 2.109375 48.328125 C 2.140625 48.738281 2.191406 49.148438 2.238281 49.550781 C 2.410156 50.621094 2.691406 51.609375 3.070312 52.53125 C 3.191406 52.808594 3.320312 53.078125 3.460938 53.351562 C 3.929688 54.25 4.519531 55.070312 5.238281 55.789062 C 5.503906 56.054688 5.78125 56.300781 6.070312 56.53125 C 6.238281 56.667969 6.421875 56.785156 6.597656 56.90625 C 6.722656 56.996094 6.84375 57.09375 6.972656 57.175781 C 7.230469 57.335938 7.5 57.480469 7.773438 57.621094 C 7.835938 57.652344 7.890625 57.6875 7.949219 57.71875 C 8.269531 57.875 8.601562 58.015625 8.945312 58.144531 C 8.960938 58.148438 8.980469 58.160156 8.996094 58.164062 C 10.449219 58.699219 12.097656 58.976562 13.929688 58.992188 C 13.9375 58.992188 13.945312 58.996094 13.953125 58.996094 C 13.96875 59 13.984375 59 14 59 C 14.007812 59 14.011719 58.996094 14.019531 58.996094 C 14.046875 58.996094 14.070312 59 14.101562 59 C 14.46875 59 14.839844 58.988281 15.210938 58.960938 C 15.671875 58.941406 16.128906 58.898438 16.601562 58.851562 C 16.601562 58.851562 16.609375 58.851562 16.621094 58.851562 L 55.5 56.910156 C 56.539062 56.859375 57.359375 56.03125 57.398438 54.988281 L 58.890625 16.289062 C 58.898438 16.21875 58.96875 14.320312 58.96875 14.148438 C 58.96875 13.390625 58.90625 12.671875 58.816406 11.96875 Z M 43.671875 4.058594 L 43.371094 4.390625 L 40.058594 7.933594 C 39.6875 7.316406 39.195312 6.769531 38.570312 6.351562 L 37.910156 5.910156 L 35.890625 4.570312 L 35.878906 4.570312 L 35.121094 4.058594 Z M 5.179688 29.109375 C 5.230469 28.929688 5.308594 28.761719 5.410156 28.589844 L 9.761719 20.980469 C 9.890625 20.75 10.050781 20.539062 10.238281 20.351562 L 20.21875 10.371094 C 20.449219 10.140625 20.71875 9.949219 21 9.800781 L 30.378906 5.109375 C 30.53125 5.039062 30.679688 4.980469 30.839844 4.929688 C 31.128906 4.839844 31.429688 4.800781 31.71875 4.800781 C 32.308594 4.800781 32.890625 4.96875 33.390625 5.300781 L 33.75 5.539062 L 35.679688 6.828125 L 37.460938 8.011719 C 38.578125 8.761719 39.070312 10.179688 38.640625 11.460938 L 35.488281 20.898438 C 35.320312 21.398438 35.03125 21.851562 34.640625 22.199219 L 22.390625 33.078125 C 22.011719 33.421875 21.550781 33.660156 21.050781 33.769531 L 11.050781 35.988281 C 9.921875 36.238281 8.78125 35.828125 8.058594 34.941406 L 7.480469 34.210938 L 6.148438 32.550781 L 6.140625 32.539062 L 5.671875 31.949219 C 5.230469 31.410156 5.011719 30.75 5.011719 30.078125 C 5.011719 29.75 5.058594 29.429688 5.179688 29.109375 Z M 10.265625 56.472656 C 10.183594 56.445312 10.097656 56.425781 10.015625 56.398438 C 9.839844 56.339844 9.671875 56.273438 9.5 56.207031 C 9.382812 56.160156 9.265625 56.113281 9.148438 56.0625 C 9.003906 56 8.863281 55.929688 8.722656 55.859375 C 8.589844 55.792969 8.460938 55.722656 8.332031 55.648438 C 8.214844 55.582031 8.097656 55.511719 7.984375 55.441406 C 7.832031 55.34375 7.6875 55.238281 7.546875 55.136719 C 7.460938 55.074219 7.371094 55.011719 7.289062 54.949219 C 7.066406 54.769531 6.851562 54.582031 6.648438 54.382812 C 4.570312 52.289062 3.730469 49.210938 4 45.550781 L 7.53125 40.25 C 7.839844 39.789062 7.71875 39.171875 7.261719 38.871094 C 6.800781 38.558594 6.179688 38.679688 5.871094 39.140625 L 4.949219 40.511719 L 4.949219 40.53125 L 4.03125 41.898438 L 4.03125 33.089844 C 4.050781 33.128906 4.078125 33.160156 4.109375 33.199219 L 5.179688 34.53125 L 6.488281 36.179688 C 6.5 36.199219 6.519531 36.21875 6.53125 36.230469 C 6.945312 36.734375 7.445312 37.136719 7.988281 37.4375 C 7.988281 37.527344 12.710938 56.933594 12.710938 56.933594 C 11.832031 56.855469 11.019531 56.699219 10.265625 56.472656 Z M 16.25 56.871094 L 16.089844 56.878906 C 16.003906 56.890625 15.929688 56.894531 15.847656 56.902344 C 15.785156 56.90625 15.71875 56.914062 15.660156 56.917969 C 15.578125 56.925781 15.503906 56.929688 15.425781 56.9375 L 19.464844 45.195312 C 19.644531 44.675781 19.367188 44.105469 18.84375 43.925781 C 18.320312 43.742188 17.75 44.023438 17.570312 44.546875 L 14.160156 54.457031 L 10.144531 38.046875 C 10.222656 38.050781 10.300781 38.058594 10.378906 38.058594 C 10.75 38.058594 11.121094 38.019531 11.480469 37.941406 L 21.488281 35.71875 C 21.707031 35.671875 21.921875 35.605469 22.128906 35.527344 L 41.484375 42.714844 C 41.53125 42.730469 41.585938 42.730469 41.632812 42.742188 C 33.417969 50.777344 23.949219 56.027344 16.25 56.871094 Z M 55.398438 54.910156 L 25.28125 56.421875 C 31.398438 53.828125 37.839844 49.390625 43.601562 43.628906 C 49.621094 37.609375 54.050781 30.980469 56.558594 24.808594 Z M 56.871094 16.769531 C 55.886719 24.0625 50.84375 33.316406 42.804688 41.566406 C 42.796875 41.542969 42.800781 41.519531 42.792969 41.496094 L 40.242188 32.804688 C 40.085938 32.273438 39.53125 31.96875 39.003906 32.128906 C 38.472656 32.28125 38.167969 32.839844 38.324219 33.367188 L 40.3125 40.144531 L 24.191406 34.160156 L 35.96875 23.691406 C 36.152344 23.527344 36.316406 23.351562 36.472656 23.164062 L 56.875 16.425781 C 56.878906 16.449219 56.875 16.484375 56.878906 16.507812 Z M 37.683594 20.65625 L 40.539062 12.089844 C 40.769531 11.402344 40.824219 10.695312 40.753906 10.007812 L 46.160156 11.921875 C 46.269531 11.960938 46.378906 11.980469 46.488281 11.980469 C 46.898438 11.980469 47.289062 11.71875 47.441406 11.308594 C 47.621094 10.789062 47.351562 10.21875 46.828125 10.039062 L 42.320312 8.441406 L 46.390625 4.070312 C 46.558594 4.058594 46.730469 4.058594 46.898438 4.058594 C 50.101562 4.058594 52.601562 4.941406 54.351562 6.679688 C 54.578125 6.910156 54.789062 7.148438 54.988281 7.410156 C 56.320312 9.128906 56.980469 11.476562 56.960938 14.289062 Z M 37.683594 20.65625 "/>
<path style=" stroke:none;fill-rule:nonzero;fill:rgb(65.098041%,8.235294%,39.215687%);fill-opacity:1;" d="M 53.148438 12.273438 L 50.703125 11.40625 C 50.183594 11.222656 49.609375 11.496094 49.425781 12.015625 C 49.242188 12.535156 49.515625 13.109375 50.035156 13.292969 L 52.480469 14.160156 C 52.59375 14.199219 52.703125 14.21875 52.816406 14.21875 C 53.226562 14.21875 53.613281 13.960938 53.757812 13.550781 C 53.941406 13.03125 53.671875 12.460938 53.148438 12.273438 Z M 51.5625 54.476562 C 51.816406 54.476562 52.074219 54.378906 52.269531 54.183594 L 53.683594 52.765625 C 54.074219 52.375 54.074219 51.742188 53.683594 51.351562 C 53.292969 50.960938 52.660156 50.960938 52.269531 51.351562 L 50.855469 52.769531 C 50.464844 53.160156 50.464844 53.789062 50.855469 54.183594 C 51.050781 54.378906 51.304688 54.476562 51.5625 54.476562 Z M 48.023438 50.9375 C 48.28125 50.9375 48.535156 50.839844 48.730469 50.644531 L 50.148438 49.230469 C 50.539062 48.839844 50.539062 48.207031 50.148438 47.816406 C 49.757812 47.425781 49.125 47.425781 48.734375 47.816406 L 47.316406 49.230469 C 46.925781 49.621094 46.925781 50.253906 47.316406 50.644531 C 47.511719 50.84375 47.769531 50.9375 48.023438 50.9375 Z M 43.78125 47.109375 C 43.976562 47.304688 44.234375 47.402344 44.488281 47.402344 C 44.746094 47.402344 45.003906 47.304688 45.195312 47.109375 L 46.609375 45.695312 C 47.003906 45.304688 47.003906 44.675781 46.609375 44.28125 C 46.21875 43.890625 45.589844 43.890625 45.195312 44.28125 L 43.78125 45.695312 C 43.390625 46.085938 43.390625 46.71875 43.78125 47.109375 Z M 43.78125 47.109375 "/>
</g>
</svg>
