<svg xmlns="http://www.w3.org/2000/svg" xmlns:xlink="http://www.w3.org/1999/xlink" viewBox="0,0,256,256" width="64px" height="64px" fill-rule="nonzero"><g fill="none" fill-rule="nonzero" stroke="none" stroke-width="1" stroke-linecap="butt" stroke-linejoin="miter" stroke-miterlimit="10" stroke-dasharray="" stroke-dashoffset="0" font-family="none" font-weight="none" font-size="none" text-anchor="none" style="mix-blend-mode: normal"><g transform="scale(4,4)"><path d="M42.539,52.836c7.981,-6.94 12.888,-16.758 13.649,-27.307l0.688,-11.541c0.069,-1.099 -0.764,-2.047 -1.863,-2.12l-3.619,-0.241c-6.115,-0.408 -11.959,-2.679 -16.745,-6.507l-1.399,-1.119c-0.73,-0.584 -1.768,-0.584 -2.499,0l-1.399,1.119c-4.786,3.829 -10.63,6.1 -16.745,6.507l-3.619,0.241c-1.099,0.073 -1.932,1.021 -1.863,2.12l0.688,11.541c0.761,10.549 5.668,20.367 13.649,27.307l9.226,8.023c0.753,0.654 1.872,0.654 2.625,0z" fill="#f9e3ae"></path><path d="M56.88,13.99l-0.69,11.54c-0.76,10.55 -5.67,20.37 -13.65,27.31l-9.23,8.02c-0.37,0.32 -0.84,0.49 -1.31,0.49v-57.79c0.44,0 0.88,0.15 1.25,0.44l1.4,1.12c4.78,3.83 10.63,6.1 16.74,6.51l3.62,0.24c1.1,0.07 1.93,1.02 1.87,2.12z" fill="#f6d397"></path><path d="M32.382,12.434l1.238,2.264l2.264,1.238l-2.264,1.239l-1.238,2.264l-1.238,-2.264l-2.264,-1.239l2.264,-1.238zM14.299,23.439l0.855,1.563l1.563,0.855l-1.563,0.855l-0.855,1.564l-0.855,-1.564l-1.564,-0.855l1.564,-0.855zM43.528,37.439l0.582,1.065l1.066,0.582l-1.066,0.583l-0.582,1.065l-0.583,-1.065l-1.065,-0.583l1.065,-0.582z" fill="#faefde"></path><g fill="#08243b"><path d="M22,43.438c-0.552,0 -1,0.447 -1,1v2c0,0.553 0.448,1 1,1c0.552,0 1,-0.447 1,-1v-2c0,-0.552 -0.448,-1 -1,-1zM27,43.438c-0.552,0 -1,0.447 -1,1v2c0,0.553 0.448,1 1,1c0.552,0 1,-0.447 1,-1v-2c0,-0.552 -0.448,-1 -1,-1zM32,43.438c-0.552,0 -1,0.447 -1,1v2c0,0.553 0.448,1 1,1c0.552,0 1,-0.447 1,-1v-2c0,-0.552 -0.448,-1 -1,-1zM37,43.438c-0.552,0 -1,0.447 -1,1v2c0,0.553 0.448,1 1,1c0.552,0 1,-0.447 1,-1v-2c0,-0.552 -0.448,-1 -1,-1zM42,43.438c-0.552,0 -1,0.447 -1,1v2c0,0.553 0.448,1 1,1c0.552,0 1,-0.447 1,-1v-2c0,-0.552 -0.448,-1 -1,-1z"></path><path d="M55.079,10.309l-3.619,-0.241c-5.941,-0.396 -11.539,-2.571 -16.187,-6.291l-1.398,-1.118c-1.104,-0.885 -2.646,-0.884 -3.749,-0.001l-1.399,1.119c-4.648,3.72 -10.246,5.895 -16.188,6.291l-3.619,0.241c-1.644,0.109 -2.897,1.536 -2.795,3.178l0.689,11.553c0.786,10.887 5.754,20.827 13.991,27.99l9.226,8.022c0.561,0.487 1.265,0.731 1.968,0.731c0.704,0 1.408,-0.244 1.969,-0.731l9.226,-8.023c8.237,-7.162 13.206,-17.103 13.991,-28.002l0.688,-11.538c0.103,-1.644 -1.15,-3.071 -2.794,-3.18zM55.19,24.896c-0.525,7.287 -3.028,14.122 -7.19,19.91v-0.367c0,-0.553 -0.448,-1 -1,-1c-0.552,0 -1,0.447 -1,1v2c0,0.243 0.097,0.458 0.242,0.631c-1.323,1.58 -2.774,3.071 -4.359,4.45l-9.226,8.023c-0.375,0.326 -0.939,0.326 -1.313,0l-9.226,-8.022c-1.585,-1.379 -3.036,-2.87 -4.36,-4.45c0.144,-0.174 0.242,-0.389 0.242,-0.633v-2c0,-0.553 -0.448,-1 -1,-1c-0.552,0 -1,0.447 -1,1v0.368c-4.162,-5.787 -6.665,-12.62 -7.19,-19.898l-0.688,-11.544c-0.034,-0.548 0.384,-1.023 0.932,-1.06l3.619,-0.241c6.352,-0.424 12.335,-2.75 17.304,-6.725l1.399,-1.12c0.184,-0.146 0.404,-0.22 0.624,-0.22c0.22,0 0.441,0.074 0.625,0.222l1.399,1.119c4.969,3.975 10.952,6.301 17.303,6.725l3.619,0.241c0.548,0.036 0.966,0.512 0.932,1.062z"></path><path d="M34.57,10.658c2.776,1.943 5.831,3.409 9.079,4.358c0.528,0.154 1.086,-0.149 1.24,-0.68c0.155,-0.53 -0.149,-1.085 -0.68,-1.24c-3.039,-0.888 -5.896,-2.26 -8.493,-4.077l-2.569,-1.799c-0.686,-0.48 -1.608,-0.48 -2.293,0l-2.57,1.799c-4.337,3.035 -9.421,4.826 -14.703,5.178l-0.649,0.044c-0.551,0.038 -0.968,0.515 -0.93,1.065c0.036,0.528 0.475,0.933 0.997,0.933c0.022,0 0.045,-0.001 0.068,-0.002l0.648,-0.044c5.646,-0.377 11.08,-2.291 15.715,-5.535l2.57,-1.799zM51.009,14.237l-0.591,-0.04c-0.759,-0.05 -1.527,-0.132 -2.283,-0.242c-0.54,-0.087 -1.054,0.299 -1.134,0.845c-0.08,0.547 0.298,1.054 0.845,1.134c0.808,0.118 1.628,0.205 2.438,0.26l0.59,0.04c0.023,0.001 0.046,0.002 0.069,0.002c0.521,0 0.961,-0.404 0.997,-0.933c0.037,-0.551 -0.38,-1.028 -0.931,-1.066zM48,34h-4v-11c0,-0.553 -0.448,-1 -1,-1c-0.552,0 -1,0.447 -1,1v12c0,0.553 0.448,1 1,1h5c0.552,0 1,-0.447 1,-1c0,-0.553 -0.448,-1 -1,-1zM27,33v-2c0,-1.654 -1.346,-3 -3,-3h-3c-0.551,0 -1,-0.448 -1,-1v-2c0,-0.552 0.449,-1 1,-1h3c0.551,0 1,0.448 1,1c0,0.553 0.448,1 1,1c0.552,0 1,-0.447 1,-1c0,-1.654 -1.346,-3 -3,-3h-3c-1.654,0 -3,1.346 -3,3v2c0,1.654 1.346,3 3,3h3c0.551,0 1,0.448 1,1v2c0,0.552 -0.449,1 -1,1h-3c-0.551,0 -1,-0.448 -1,-1c0,-0.553 -0.448,-1 -1,-1c-0.552,0 -1,0.447 -1,1c0,1.654 1.346,3 3,3h3c1.654,0 3,-1.346 3,-3zM33,24h3c0.551,0 1,0.448 1,1c0,0.553 0.448,1 1,1c0.552,0 1,-0.447 1,-1c0,-1.654 -1.346,-3 -3,-3h-3c-1.654,0 -3,1.346 -3,3v2c0,1.654 1.346,3 3,3h3c0.551,0 1,0.448 1,1v2c0,0.552 -0.449,1 -1,1h-3c-0.551,0 -1,-0.448 -1,-1c0,-0.553 -0.448,-1 -1,-1c-0.552,0 -1,0.447 -1,1c0,1.654 1.346,3 3,3h3c1.654,0 3,-1.346 3,-3v-2c0,-1.654 -1.346,-3 -3,-3h-3c-0.551,0 -1,-0.448 -1,-1v-2c0,-0.552 0.449,-1 1,-1z"></path></g></g></g></svg>