<?xml version="1.0" encoding="UTF-8"?>
<svg xmlns="http://www.w3.org/2000/svg" xmlns:xlink="http://www.w3.org/1999/xlink" viewBox="0 0 64 64" width="64px" height="64px">
<g id="surface88153708">
<path style=" stroke:none;fill-rule:nonzero;fill:rgb(19.607843%,40.392157%,44.313726%);fill-opacity:1;" d="M 7 3 L 45 3 C 47.210938 3 49 4.789062 49 7 L 49 57 C 49 59.210938 47.210938 61 45 61 L 7 61 C 4.789062 61 3 59.210938 3 57 L 3 7 C 3 4.789062 4.789062 3 7 3 Z M 7 3 "/>
<path style=" stroke:none;fill-rule:nonzero;fill:rgb(77.254903%,89.411765%,98.039216%);fill-opacity:1;" d="M 45 10 L 45 50 C 45 50.550781 44.550781 51 44 51 L 8 51 C 7.449219 51 7 50.550781 7 50 L 7 10 C 7 9.449219 7.449219 9 8 9 L 44 9 C 44.550781 9 45 9.449219 45 10 Z M 45 10 "/>
<path style=" stroke:none;fill-rule:nonzero;fill:rgb(89.019608%,94.901961%,100%);fill-opacity:1;" d="M 45.070312 32.929688 L 26.929688 51 L 10.859375 51 L 45.070312 16.871094 Z M 45.289062 12.28125 L 7.070312 50.5 L 7.070312 44.070312 L 42.140625 9 L 45.46875 9.46875 Z M 37.859375 9 L 6.949219 39.910156 L 6.949219 34.550781 L 32.5 9 Z M 37.859375 9 "/>
<path style=" stroke:none;fill-rule:nonzero;fill:rgb(17.254902%,54.901963%,60.000002%);fill-opacity:1;" d="M 15.5 14 L 16.738281 16.261719 L 19 17.5 L 16.738281 18.738281 L 15.5 21 L 14.261719 18.738281 L 12 17.5 L 14.261719 16.261719 Z M 21.421875 33.160156 L 22.269531 34.730469 L 23.839844 35.578125 L 22.269531 36.441406 L 21.421875 38 L 20.558594 36.441406 L 19 35.578125 L 20.558594 34.730469 Z M 29.648438 18.699219 L 30.230469 19.769531 L 31.300781 20.351562 L 30.230469 20.929688 L 29.648438 22 L 29.070312 20.929688 L 28 20.351562 L 29.070312 19.769531 Z M 29.648438 18.699219 "/>
<path style=" stroke:none;fill-rule:nonzero;fill:rgb(19.607843%,40.392157%,44.313726%);fill-opacity:1;" d="M 39 15 L 57 15 C 59.210938 15 61 16.789062 61 19 L 61 59 C 61 61.210938 59.210938 63 57 63 L 39 63 C 36.789062 63 35 61.210938 35 59 L 35 19 C 35 16.789062 36.789062 15 39 15 Z M 39 15 "/>
<path style=" stroke:none;fill-rule:nonzero;fill:rgb(77.254903%,89.411765%,98.039216%);fill-opacity:1;" d="M 35 23 L 61 23 L 61 53 L 35 53 Z M 35 23 "/>
<path style=" stroke:none;fill-rule:nonzero;fill:rgb(89.019608%,94.901961%,100%);fill-opacity:1;" d="M 51 53 L 61.5 42.5 L 61.128906 27.878906 L 36 53 Z M 35 50 L 61.128906 23.878906 L 56 23 L 35 44 Z M 35 40 L 52 23 L 47 23 L 35 35 Z M 35 40 "/>
<path style=" stroke:none;fill-rule:nonzero;fill:rgb(15.686275%,27.450982%,29.411766%);fill-opacity:1;" d="M 31.308594 50 L 8 50 L 8 10 L 44 10 L 44 11 C 44 11.550781 44.449219 12 45 12 C 45.550781 12 46 11.550781 46 11 L 46 10 C 46 8.894531 45.105469 8 44 8 L 8 8 C 6.894531 8 6 8.894531 6 10 L 6 50 C 6 51.105469 6.894531 52 8 52 L 31.308594 52 C 31.863281 52 32.308594 51.550781 32.308594 51 C 32.308594 50.449219 31.863281 50 31.308594 50 Z M 31.308594 50 "/>
<path style=" stroke:none;fill-rule:nonzero;fill:rgb(15.686275%,27.450982%,29.411766%);fill-opacity:1;" d="M 57 14 L 50 14 L 50 7 C 50 4.238281 47.761719 2 45 2 L 7 2 C 4.238281 2 2 4.238281 2 7 L 2 57 C 2 59.761719 4.238281 62 7 62 L 35 62 C 35.945312 63.257812 37.425781 64 39 64 L 57 64 C 59.761719 64 62 61.761719 62 59 L 62 19 C 62 16.238281 59.761719 14 57 14 Z M 36 24 L 60 24 L 60 52 L 36 52 Z M 57 16 C 58.65625 16 60 17.34375 60 19 L 60 22 L 36 22 L 36 19 C 36 17.34375 37.34375 16 39 16 Z M 7 60 C 5.34375 60 4 58.65625 4 57 L 4 7 C 4 5.34375 5.34375 4 7 4 L 45 4 C 46.65625 4 48 5.34375 48 7 L 48 14 L 39 14 C 36.238281 14 34 16.238281 34 19 L 34 59 C 33.996094 59.335938 34.03125 59.671875 34.101562 60 Z M 57 62 L 39 62 C 37.730469 61.996094 36.601562 61.195312 36.179688 60 C 36.058594 59.679688 35.996094 59.339844 36 59 L 36 54 L 60 54 L 60 59 C 60 60.65625 58.65625 62 57 62 Z M 57 62 "/>
<path style=" stroke:none;fill-rule:nonzero;fill:rgb(15.686275%,27.450982%,29.411766%);fill-opacity:1;" d="M 10 45 L 10 47 C 10 47.550781 10.449219 48 11 48 C 11.550781 48 12 47.550781 12 47 L 12 45 C 12 44.449219 11.550781 44 11 44 C 10.449219 44 10 44.449219 10 45 Z M 15 45 L 15 47 C 15 47.550781 15.449219 48 16 48 C 16.550781 48 17 47.550781 17 47 L 17 45 C 17 44.449219 16.550781 44 16 44 C 15.449219 44 15 44.449219 15 45 Z M 20 45 L 20 47 C 20 47.550781 20.449219 48 21 48 C 21.550781 48 22 47.550781 22 47 L 22 45 C 22 44.449219 21.550781 44 21 44 C 20.449219 44 20 44.449219 20 45 Z M 25 45 L 25 47 C 25 47.550781 25.449219 48 26 48 C 26.550781 48 27 47.550781 27 47 L 27 45 C 27 44.449219 26.550781 44 26 44 C 25.449219 44 25 44.449219 25 45 Z M 30 45 L 30 47 C 30 47.550781 30.449219 48 31 48 C 31.550781 48 32 47.550781 32 47 L 32 45 C 32 44.449219 31.550781 44 31 44 C 30.449219 44 30 44.449219 30 45 Z M 48 56 C 46.894531 56 46 56.894531 46 58 C 46 59.105469 46.894531 60 48 60 C 49.105469 60 50 59.105469 50 58 C 50 56.894531 49.105469 56 48 56 Z M 26 54 C 24.894531 54 24 54.894531 24 56 C 24 57.105469 24.894531 58 26 58 C 27.105469 58 28 57.105469 28 56 C 28 54.894531 27.105469 54 26 54 Z M 49 20 L 52 20 C 52.550781 20 53 19.550781 53 19 C 53 18.449219 52.550781 18 52 18 L 49 18 C 48.449219 18 48 18.449219 48 19 C 48 19.550781 48.449219 20 49 20 Z M 45 18 L 44 18 C 43.449219 18 43 18.449219 43 19 C 43 19.550781 43.449219 20 44 20 L 45 20 C 45.550781 20 46 19.550781 46 19 C 46 18.449219 45.550781 18 45 18 Z M 45 18 "/>
<path style=" stroke:none;fill-rule:nonzero;fill:rgb(17.254902%,54.901963%,60.000002%);fill-opacity:1;" d="M 43.5 27.5 L 44.738281 29.761719 L 47 31 L 44.738281 32.238281 L 43.5 34.5 L 42.261719 32.238281 L 40 31 L 42.261719 29.761719 Z M 55.421875 35 L 56.269531 36.558594 L 57.839844 37.421875 L 56.269531 38.269531 L 55.421875 39.839844 L 54.558594 38.269531 L 53 37.421875 L 54.558594 36.558594 Z M 48.351562 45 L 48.941406 46.058594 L 50 46.648438 L 48.941406 47.230469 L 48.351562 48.300781 L 47.769531 47.230469 L 46.699219 46.648438 L 47.769531 46.058594 Z M 48.351562 45 "/>
</g>
</svg>
