<svg xmlns="http://www.w3.org/2000/svg"  viewBox="0 0 64 64" width="64px" height="64px"><g data-name="08-Spain"><path fill="#e21743" d="M63,5V21H1V5A4,4,0,0,1,5,1H59A4,4,0,0,1,63,5Z"/><rect width="62" height="22" x="1" y="21" fill="#ffd45d"/><path fill="#e21743" d="M63,43V59a4,4,0,0,1-4,4H5a4,4,0,0,1-4-4V43Z"/><path fill="#c7002b" d="M1,17v4h.37A22.058,22.058,0,0,1,1,17Z"/><path fill="#c7002b" d="M63,21V17a22.058,22.058,0,0,1-.37,4Z"/><path fill="#ffb844" d="M41,39H23A22,22,0,0,1,1.37,21H1V43H63V21h-.37A22,22,0,0,1,41,39Z"/><path fill="#c7002b" d="M1,59a4,4,0,0,0,4,4H59a4,4,0,0,0,4-4V43H1Z"/><path fill="#b51135" d="M59,59H5a4,4,0,0,1-4-4v4a4,4,0,0,0,4,4H59a4,4,0,0,0,4-4V55A4,4,0,0,1,59,59Z"/><path fill="#ea5172" d="M59,1H5A4,4,0,0,0,1,5V9A4,4,0,0,1,5,5H59a4,4,0,0,1,4,4V5A4,4,0,0,0,59,1Z"/><path fill="#e21743" d="M19,24a1.959,1.959,0,0,1,2,2,1.8,1.8,0,0,1-.988,1.744A1.935,1.935,0,0,0,19,29.482V30H13v-.518a1.935,1.935,0,0,0-1.012-1.738A1.8,1.8,0,0,1,11,26a1.959,1.959,0,0,1,2-2Z"/><polygon fill="#eef2fa" points="21 30 21 35 16 35 16 30 19 30 21 30"/><path fill="#e21743" d="M16,35v5c-2.76,0-5-.69-5-4V35Z"/><path fill="#e21743" d="M21,35v1c0,3.31-2.24,4-5,4V35Z"/><polygon fill="#e21743" points="16 30 16 35 11 35 11 30 13 30 16 30"/><polygon fill="#ffb844" points="15 39.964 15 39.964 15 39.964 15 39.964"/><polygon fill="#ffb844" points="13 39.519 13 39.519 13 39.519 13 39.519"/><path fill="#c7002b" d="M16,37.842c-.336-.113-.671-.228-1-.356s-.67-.275-1-.423-.671-.315-1-.484-.674-.34-1-.529c-.342-.2-.67-.418-1-.634V36a3.773,3.773,0,0,0,1,2.853v.01c.017.017.039.028.057.045a3.014,3.014,0,0,0,.336.268c.037.026.073.054.112.079a3.705,3.705,0,0,0,.495.264h0a5.161,5.161,0,0,0,1,.3v.005a8.147,8.147,0,0,0,1,.136h0c.323.025.658.036,1,.036,1.685,0,3.173-.261,4.079-1.214A21.884,21.884,0,0,1,16,37.842Z"/><path d="M59,0H5A5.006,5.006,0,0,0,0,5V59a5.006,5.006,0,0,0,5,5H59a5.006,5.006,0,0,0,5-5V5A5.006,5.006,0,0,0,59,0Zm0,62H5a3,3,0,0,1-3-3V44H6V42H2V22H56V20H2V5A3,3,0,0,1,5,2H59a3,3,0,0,1,3,3V20H58v2h4V42H8v2H62V59A3,3,0,0,1,59,62Z"/><path d="M16,41c1.484,0,6,0,6-5V30a1,1,0,0,0-1-1h-.884a.818.818,0,0,1,.349-.365A2.8,2.8,0,0,0,22,26a2.916,2.916,0,0,0-3-3H13a2.916,2.916,0,0,0-3,3,2.8,2.8,0,0,0,1.535,2.635.823.823,0,0,1,.349.365H11a1,1,0,0,0-1,1v6C10,41,14.516,41,16,41Zm-4-5h3v2.963C12.808,38.785,12,37.943,12,36Zm3-5v3H12V31Zm5,0v3H17V31Zm-3,7.963V36h3C20,37.943,19.192,38.785,17,38.963ZM12.44,26.852A.815.815,0,0,1,12,26a.915.915,0,0,1,1-1h5.988A.919.919,0,0,1,20,26a.814.814,0,0,1-.441.852A2.855,2.855,0,0,0,18.064,29H13.936A2.856,2.856,0,0,0,12.44,26.852Z"/><rect width="2" height="11" x="23" y="29"/><rect width="2" height="11" x="7" y="29"/></g></svg>