<?xml version="1.0" encoding="UTF-8"?>
<svg enable-background="new 0 0 60 60" version="1.1" viewBox="0 0 60 60" xml:space="preserve" xmlns="http://www.w3.org/2000/svg">
<style type="text/css">
	.st0{fill:#CAF1FC;}
	.st1{fill:#B0EDFC;}
	.st2{fill:#FE4F60;}
	.st3{fill:#EA475F;}
	.st4{fill:#42434D;}
	.st5{fill:#E3F7FC;}
	.st6{fill:#FF6D7A;}
	.st7{fill:#3998FF;}
	.st8{fill:#88C1FF;}
	.st9{fill:#F6F0ED;}
</style>
<path class="st0" d="m59 38.6c0 2.1-1.7 4-3.9 4h-15.5c-2 0-3.6-1.4-3.9-3.4 0 0-2.8-20-3.1-22.5-0.3-2.4 1.5-4.5 3.9-4.5h15.5c1.9 0 3.6 1.5 3.8 3.4 0.9 6 3.2 22.5 3.2 23z"/>
<path class="st1" d="m59 38.6c0 2.1-1.7 4-3.9 4h-15.5c-2 0-3.6-1.4-3.9-3.4-0.1-0.9-0.4-3.1-3.1-22.5-0.3-2.4 1.5-4.5 3.9-4.5h10.2c0 0.3 2.7 19.5 3.2 23 0.3 1.9 1.9 3.4 3.9 3.4h5.2z"/>
<path class="st2" d="m58.9 37.5h-23.4c-0.2-1.2-0.4-3-0.7-5.1h23.4c0.3 2.2 0.5 4 0.7 5.1z"/>
<path class="st2" d="m57.5 27.4h-23.4c-0.2-1.8-0.5-3.5-0.7-5.1h23.4c0.2 1.7 0.5 3.4 0.7 5.1z"/>
<path class="st2" d="m56.1 17.3h-23.4c0-0.3-0.1-0.5-0.1-0.6-0.3-2.4 1.5-4.5 3.9-4.5h15.5c1.9 0 3.6 1.5 3.8 3.4 0.1 0.5 0.2 1.1 0.3 1.7z"/>
<path class="st3" d="m47.4 17.3h-14.7c0-0.3-0.1-0.5-0.1-0.6-0.3-2.4 1.5-4.5 3.9-4.5h10.2c0.2 1.4 0.4 3.2 0.7 5.1z"/>
<path class="st3" d="m48.8 27.4h-14.7c-0.2-1.8-0.5-3.5-0.7-5.1h14.7c0.2 1.8 0.5 3.5 0.7 5.1z"/>
<path class="st3" d="m51.1 37.5h-15.6c-0.2-1.2-0.4-3-0.7-5.1h14.7c0.2 1.3 0.3 2.2 0.4 2.8 0.1 0.9 0.5 1.7 1.2 2.3z"/>
<path class="st4" d="m44.3 32.5s-6.5 9.5-6.6 9.6c-1.1-0.6-1.8-1.6-2-2.9-0.2-1.4 0.3 2.5-3.1-22.5-0.3-2.4 1.5-4.5 3.9-4.5h6c1.1 7.8 0.6 4.2 2.4 17.2 0.1 1.1-0.1 2.3-0.6 3.1z"/>
<path class="st0" d="m40.9 34.2h-35.7c0-0.2-3.4-24.9-4.2-30.3h36.9c2.1 0 3.9 1.5 4.1 3.6l3 21.9c0.4 2.6-1.6 4.8-4.1 4.8z"/>
<path class="st5" d="m38 7.5c-7.8 0.1-18.7 0.3-24.2 5.7-2.9 2.9-3.9 6.8-4.5 11.4-0.1 1.4-1.2 2.4-2.5 2.5-1.4 0.1-2.7-0.9-2.9-2.3 0-0.1-0.5-3.5-2.9-20.9h37c2.4 0.1 2.3 3.6 0 3.6z"/>
<path class="st2" d="m45 29.1h-40.5c-0.1-0.5-0.7-5-0.7-5h40.5c0.4 2.4 0.6 4.3 0.7 5z"/>
<path class="st2" d="m43.6 19h-19.6s-0.3-2.1-0.7-5.1h19.6c0.3 1.7 0.5 3.3 0.7 5.1z"/>
<path class="st2" d="m42.2 8.9h-19.6c-0.4-2.9-0.7-5-0.7-5h16.3c2 0.1 3.6 1.6 3.8 3.6 0 0 0.1 0.3 0.2 1.4z"/>
<path class="st6" d="m38 7.5c-4.6 0.1-10.3 0.2-15.4 1.3-0.4-2.9-0.7-5-0.7-5h16.1c2.4 0.2 2.4 3.7 0 3.7z"/>
<path class="st6" d="m9.4 24.1c0 0.2-0.1 0.4-0.1 0.6-0.1 1.3-1.2 2.3-2.5 2.4-1.4 0.1-2.7-0.8-2.9-2.5l-0.1-0.5h5.6z"/>
<path class="st7" d="M24,19H3.1L1,3.9h20.9C22.8,10.2,22.4,6.9,24,19z"/>
<path class="st8" d="M22.6,8.9C15.2,10.7,12,14.1,10.5,19H3.1L1,3.9h20.9L22.6,8.9z"/>
	<path d="m60 37.6c-0.5-3.9-2.4-17.2-3-21.9-0.4-2.6-2.6-4.5-5.2-4.5h-3.7c-0.6 0-1 0.5-1 1s0.5 1 1 1h3.7c1.6 0 2.9 1.2 3.1 2.7l0.7 5.3h-6.4c-0.6 0-1 0.5-1 1s0.5 1 1 1h6.7l1.1 8h-6.4c-0.6 0-1 0.5-1 1 0 0.6 0.5 1 1 1h6.7l0.6 4.5c0.3 1.9-1.2 3.6-3.1 3.6h-15.1c-1.6 0-2.9-1.2-3.1-2.7-0.1-0.6-0.6-1-1.2-0.9s-1 0.6-0.9 1.2c0.4 2.6 2.6 4.5 5.2 4.5h15.1c3.1 0.2 5.6-2.6 5.2-5.8z"/>
	<path d="M40.9,35.2c3.2,0,5.6-2.8,5.2-5.9c-0.6-4-2.4-17.5-3-21.9c-0.4-2.6-2.6-4.5-5.2-4.5H1C0.4,2.8-0.1,3.4,0,4   c4.4,32.2,2.3,17,4.2,30.3c0.1,0.5,0.5,0.9,1,0.9H40.9z M4.3,20.1H24c0.6,0,1.1-0.6,1-1.2L23.7,8.8c-0.1-0.6-0.6-1-1.2-0.9   c-0.6,0.1-1,0.6-0.9,1.2l1.2,8.9H4L2.2,4.9h35.7c1.6,0,2.9,1.2,3.1,2.7l0.7,5.3H28.4c-0.6,0-1,0.5-1,1s0.5,1,1,1H42   c0.8,5.9,1.1,7.6,1.1,8H10.3c-0.6,0-1,0.5-1,1s0.5,1,1,1h33.2c0.2,1.2,0.4,2.5,0.6,4.5c0.3,1.9-1.2,3.6-3.1,3.6H6.1L4.3,20.1z"/>
	<path d="m20.2 13.9c-0.4-0.9-1.6-0.9-1.9 0-0.2 0.5 0 1.1 0.6 1.4 0.8 0.3 1.6-0.5 1.3-1.4z"/>
	<path d="m16 13.9c-0.3-0.6-1-0.8-1.5-0.5s-0.6 1-0.3 1.4c0.3 0.5 1 0.6 1.4 0.3 0.4-0.2 0.6-0.7 0.4-1.2z"/>
	<path d="m11.8 13.9c-0.4-0.9-1.6-0.9-1.9 0-0.1 0.3-0.1 0.5 0 0.8 0.3 0.7 1.2 0.9 1.7 0.3 0.3-0.2 0.4-0.7 0.2-1.1z"/>
	<path d="m7.6 13.9c-0.3-0.6-1-0.8-1.5-0.5s-0.6 1-0.3 1.4c0.4 0.6 1.3 0.6 1.7 0 0.2-0.2 0.3-0.5 0.1-0.9z"/>
	<path d="m9.2 10.8c-0.3-0.6-1-0.8-1.5-0.5s-0.6 1-0.3 1.4c0.3 0.5 0.9 0.6 1.4 0.3 0.4-0.2 0.6-0.7 0.4-1.2z"/>
	<path d="m13.4 10.8c-0.3-0.6-1-0.8-1.5-0.5s-0.6 0.9-0.3 1.4 1 0.6 1.5 0.3c0.3-0.2 0.5-0.7 0.3-1.2z"/>
	<path d="m17.6 10.8c-0.4-0.9-1.6-0.8-1.9 0-0.2 0.5 0 1.1 0.6 1.4 0.8 0.3 1.7-0.6 1.3-1.4z"/>
	<path d="m18.2 9.1c0.7 0 1.2-0.8 1-1.4-0.4-0.9-1.6-0.9-1.9 0-0.3 0.6 0.2 1.4 0.9 1.4z"/>
	<path d="m14.3 9.1c0.8-0.2 1.1-1.2 0.5-1.8-0.5-0.5-1.3-0.4-1.6 0.2-0.5 0.8 0.2 1.8 1.1 1.6z"/>
	<path d="m10.1 9.1c0.5-0.1 0.9-0.7 0.8-1.3-0.1-0.5-0.5-0.8-1-0.8s-0.9 0.4-1 0.8c-0.2 0.8 0.5 1.4 1.2 1.3z"/>
	<path d="m5.9 9.1c0.6-0.1 0.9-0.7 0.8-1.3-0.2-0.9-1.4-1.1-1.9-0.3s0.2 1.8 1.1 1.6z"/>
<path class="st9" d="m2.6 5.5c-0.2-1.8-1.2-2.9-2.2-2.6s-1.5 1.9-1.3 3.7l6.5 47.7c0.2 1.6 1 2.7 1.9 2.7 1.1-0.1 1.8-1.8 1.6-3.7l-6.5-47.8z"/>
</svg>
