<?xml version="1.0" encoding="UTF-8"?>
<svg xmlns="http://www.w3.org/2000/svg" xmlns:xlink="http://www.w3.org/1999/xlink" viewBox="0 0 64 64" width="64px" height="64px">
<defs>
<linearGradient id="linear0" gradientUnits="userSpaceOnUse" x1="126.3125" y1="67.87281" x2="126.3125" y2="80.224564" >
<stop offset="0" style="stop-color:rgb(36.078432%,65.882355%,71.764708%);stop-opacity:1;"/>
<stop offset="1" style="stop-color:rgb(38.82353%,76.862746%,82.352942%);stop-opacity:1;"/>
</linearGradient>
<linearGradient id="linear1" gradientUnits="userSpaceOnUse" x1="75.25" y1="78.12294" x2="75.25" y2="90.910057" >
<stop offset="0" style="stop-color:rgb(36.078432%,65.882355%,71.764708%);stop-opacity:1;"/>
<stop offset="1" style="stop-color:rgb(38.82353%,76.862746%,82.352942%);stop-opacity:1;"/>
</linearGradient>
<linearGradient id="linear2" gradientUnits="userSpaceOnUse" x1="86" y1="20.18581" x2="86" y2="140.271378" gradientTransform="matrix(0.372093,0,0,0.372093,0,0)">
<stop offset="0" style="stop-color:rgb(19.607843%,40.392157%,44.313726%);stop-opacity:1;"/>
<stop offset="1" style="stop-color:rgb(17.254902%,54.901963%,60.000002%);stop-opacity:1;"/>
</linearGradient>
<linearGradient id="linear3" gradientUnits="userSpaceOnUse" x1="86" y1="20.18581" x2="86" y2="140.271378" gradientTransform="matrix(0.372093,0,0,0.372093,0,0)">
<stop offset="0" style="stop-color:rgb(19.607843%,40.392157%,44.313726%);stop-opacity:1;"/>
<stop offset="1" style="stop-color:rgb(17.254902%,54.901963%,60.000002%);stop-opacity:1;"/>
</linearGradient>
<linearGradient id="linear4" gradientUnits="userSpaceOnUse" x1="50.36644" y1="20.18581" x2="50.36644" y2="140.271378" >
<stop offset="0" style="stop-color:rgb(19.607843%,40.392157%,44.313726%);stop-opacity:1;"/>
<stop offset="1" style="stop-color:rgb(17.254902%,54.901963%,60.000002%);stop-opacity:1;"/>
</linearGradient>
<linearGradient id="linear5" gradientUnits="userSpaceOnUse" x1="44.99144" y1="20.18581" x2="44.99144" y2="140.271378" >
<stop offset="0" style="stop-color:rgb(19.607843%,40.392157%,44.313726%);stop-opacity:1;"/>
<stop offset="1" style="stop-color:rgb(17.254902%,54.901963%,60.000002%);stop-opacity:1;"/>
</linearGradient>
</defs>
<g id="surface87460436">
<path style=" stroke:none;fill-rule:nonzero;fill:url(#linear0);" d="M 50 28 C 50 29.65625 48.65625 31 47 31 C 45.34375 31 44 29.65625 44 28 C 44 26.34375 45.34375 25 47 25 C 48.65625 25 50 26.34375 50 28 Z M 50 28 "/>
<path style=" stroke:none;fill-rule:nonzero;fill:url(#linear1);" d="M 31 32 C 31 33.65625 29.65625 35 28 35 C 26.34375 35 25 33.65625 25 32 C 25 30.34375 26.34375 29 28 29 C 29.65625 29 31 30.34375 31 32 Z M 31 32 "/>
<path style=" stroke:none;fill-rule:nonzero;fill:url(#linear2);" d="M 53 9 L 11 9 C 9.300781 9 8 10.300781 8 12 L 8 52 C 8 53.699219 9.300781 55 11 55 L 53 55 C 54.699219 55 56 53.699219 56 52 L 56 12 C 56 10.300781 54.699219 9 53 9 Z M 28.398438 11 L 31.398438 17 L 26.601562 17 L 23.601562 11 Z M 10 12 C 10 11.398438 10.398438 11 11 11 L 21.398438 11 L 24.398438 17 L 10 17 Z M 54 52 C 54 52.601562 53.601562 53 53 53 L 11 53 C 10.398438 53 10 52.601562 10 52 L 10 50.800781 C 10.300781 50.898438 10.601562 51 11 51 L 53 51 C 53.398438 51 53.699219 50.898438 54 50.800781 Z M 54 48 C 54 48.601562 53.601562 49 53 49 L 11 49 C 10.398438 49 10 48.601562 10 48 L 10 19 L 54 19 Z M 54 17 L 33.601562 17 L 30.601562 11 L 53 11 C 53.601562 11 54 11.398438 54 12 Z M 54 17 "/>
<path style=" stroke:none;fill-rule:nonzero;fill:url(#linear3);" d="M 17 45 C 19.199219 45 21 43.199219 21 41 C 21 40.300781 20.800781 39.699219 20.601562 39.199219 L 25.699219 35.199219 C 26.398438 35.699219 27.199219 36 28.101562 36 C 28.898438 36 29.699219 35.800781 30.300781 35.300781 L 34.601562 39.101562 C 34.199219 39.699219 34 40.300781 34 41 C 34 43.199219 35.800781 45 38 45 C 40.199219 45 42 43.199219 42 41 C 42 40 41.601562 39.199219 41.101562 38.5 L 45.898438 31.898438 C 46.300781 32 46.601562 32.101562 47 32.101562 C 49.199219 32.101562 51 30.300781 51 28.101562 C 51 25.898438 49.199219 24.101562 47 24.101562 C 44.800781 24.101562 43 25.898438 43 28.101562 C 43 29.199219 43.398438 30.199219 44.199219 30.898438 L 39.5 37.398438 C 39 37.101562 38.5 37 38 37 C 37.199219 37 36.398438 37.199219 35.800781 37.699219 L 31.5 33.898438 C 31.800781 33.300781 32 32.699219 32 32.101562 C 32 29.898438 30.199219 28.101562 28 28.101562 C 25.800781 28.101562 24 29.898438 24 32.101562 C 24 32.699219 24.101562 33.199219 24.398438 33.800781 L 19.300781 37.800781 C 18.601562 37.300781 17.800781 37 17 37 C 14.800781 37 13 38.800781 13 41 C 13 43.199219 14.800781 45 17 45 Z M 47 26 C 48.101562 26 49 26.898438 49 28 C 49 29.101562 48.101562 30 47 30 C 45.898438 30 45 29.101562 45 28 C 45 26.898438 45.898438 26 47 26 Z M 38 39 C 39.101562 39 40 39.898438 40 41 C 40 42.101562 39.101562 43 38 43 C 36.898438 43 36 42.101562 36 41 C 36 39.898438 36.898438 39 38 39 Z M 28 30 C 29.101562 30 30 30.898438 30 32 C 30 33.101562 29.101562 34 28 34 C 26.898438 34 26 33.101562 26 32 C 26 30.898438 26.898438 30 28 30 Z M 17 39 C 18.101562 39 19 39.898438 19 41 C 19 42.101562 18.101562 43 17 43 C 15.898438 43 15 42.101562 15 41 C 15 39.898438 15.898438 39 17 39 Z M 17 39 "/>
<path style=" stroke:none;fill-rule:nonzero;fill:url(#linear4);" d="M 13.5 22 L 24.101562 22 L 24.101562 24 L 13.5 24 Z M 13.5 22 "/>
<path style=" stroke:none;fill-rule:nonzero;fill:url(#linear5);" d="M 13.5 26 L 20.101562 26 L 20.101562 28 L 13.5 28 Z M 13.5 26 "/>
</g>
</svg>
