<svg xmlns="http://www.w3.org/2000/svg" xmlns:xlink="http://www.w3.org/1999/xlink" viewBox="0,0,256,256" width="64px" height="64px" fill-rule="nonzero"><g fill="none" fill-rule="nonzero" stroke="none" stroke-width="1" stroke-linecap="butt" stroke-linejoin="miter" stroke-miterlimit="10" stroke-dasharray="" stroke-dashoffset="0" font-family="none" font-weight="none" font-size="none" text-anchor="none" style="mix-blend-mode: normal"><g transform="scale(4,4)"><path d="M7,17l25,-14l26,14l-26,14z" fill="#ace3ff"></path><path d="M6,17v30l26,15v-31z" fill="#ace3ff"></path><path d="M17,23l15,-8l15,8l-15,8z" fill="#7bbeeb"></path><path d="M32,62l27,-15v-30l-27,14z" fill="#ace3ff"></path><path d="M17,23v18l15,8v-18z" fill="#7bbeeb"></path><path d="M32,49l15,-8v-18l-15,8z" fill="#7bbeeb"></path><path d="M17,41l-11,6v-30l11,6z" fill="#e3f2ff"></path><path d="M32,32c-0.162,0 -0.324,-0.039 -0.471,-0.117l-15,-8c-0.325,-0.174 -0.529,-0.514 -0.529,-0.883c0,-0.369 0.204,-0.709 0.529,-0.883l15,-8c0.294,-0.156 0.647,-0.156 0.941,0l15,8c0.326,0.174 0.53,0.514 0.53,0.883c0,0.369 -0.204,0.709 -0.529,0.883l-15,8c-0.147,0.078 -0.309,0.117 -0.471,0.117zM19.125,23l12.875,6.866l12.875,-6.866l-12.875,-6.866z" fill="#08243b"></path><path d="M17,27c-0.552,0 -1,-0.447 -1,-1v-2.406l-10.479,-5.716c-0.322,-0.176 -0.522,-0.514 -0.521,-0.881c0.001,-0.366 0.203,-0.703 0.526,-0.878l26,-14c0.487,-0.262 1.093,-0.08 1.354,0.407c0.262,0.485 0.08,1.092 -0.406,1.354l-24.375,13.126l9.38,5.116c0.321,0.175 0.521,0.512 0.521,0.878v3c0,0.553 -0.448,1 -1,1z" fill="#08243b"></path><path d="M17,35c-0.552,0 -1,-0.447 -1,-1v-4c0,-0.553 0.448,-1 1,-1c0.552,0 1,0.447 1,1v4c0,0.553 -0.448,1 -1,1z" fill="#08243b"></path><path d="M32,50c-0.162,0 -0.323,-0.039 -0.471,-0.117l-15,-8c-0.325,-0.174 -0.529,-0.514 -0.529,-0.883v-3c0,-0.553 0.448,-1 1,-1c0.552,0 1,0.447 1,1v2.4l13,6.933v-16.333c0,-0.553 0.448,-1 1,-1c0.552,0 1,0.447 1,1v18c0,0.352 -0.184,0.677 -0.485,0.857c-0.159,0.095 -0.337,0.143 -0.515,0.143z" fill="#08243b"></path><path d="M59,47l-27,14v-12l15,-8z" fill="#85cbf8"></path><path d="M32,63c-0.175,0 -0.351,-0.046 -0.507,-0.138c-0.306,-0.179 -0.493,-0.508 -0.493,-0.862v-13c0,-0.553 0.448,-1 1,-1c0.552,0 1,0.447 1,1v11.301l25.514,-14.175c0.484,-0.27 1.092,-0.094 1.36,0.389c0.269,0.482 0.094,1.091 -0.388,1.359l-27,15c-0.152,0.084 -0.319,0.126 -0.486,0.126z" fill="#08243b"></path><path d="M47,42c-0.552,0 -1,-0.447 -1,-1v-18c0,-0.379 0.214,-0.725 0.553,-0.895l10.244,-5.122l-23.797,-12.338v10.355c0,0.553 -0.448,1 -1,1c-0.552,0 -1,-0.447 -1,-1v-12c0,-0.35 0.182,-0.673 0.48,-0.854c0.298,-0.182 0.67,-0.194 0.98,-0.033l27,14c0.334,0.173 0.542,0.519 0.54,0.896c-0.003,0.376 -0.216,0.719 -0.553,0.887l-11.447,5.722v17.382c0,0.553 -0.448,1 -1,1z" fill="#08243b"></path><path d="M44.139,44.66c-0.357,0 -0.703,-0.192 -0.883,-0.529l-0.941,-1.765c-0.261,-0.487 -0.076,-1.093 0.411,-1.353c0.49,-0.261 1.093,-0.075 1.353,0.411l0.941,1.765c0.261,0.487 0.076,1.093 -0.411,1.353c-0.151,0.08 -0.312,0.118 -0.47,0.118z" fill="#08243b"></path><path d="M39.972,46.883c-0.357,0 -0.703,-0.192 -0.884,-0.529l-0.941,-1.766c-0.26,-0.487 -0.075,-1.094 0.412,-1.354c0.489,-0.259 1.093,-0.074 1.354,0.412l0.941,1.766c0.26,0.487 0.075,1.094 -0.412,1.354c-0.151,0.079 -0.312,0.117 -0.47,0.117z" fill="#08243b"></path><path d="M35.805,49.104c-0.357,0 -0.703,-0.192 -0.883,-0.529l-0.942,-1.765c-0.26,-0.487 -0.076,-1.093 0.412,-1.353c0.49,-0.261 1.094,-0.075 1.353,0.411l0.941,1.765c0.261,0.487 0.076,1.093 -0.411,1.353c-0.151,0.08 -0.312,0.118 -0.47,0.118z" fill="#08243b"></path><path d="M59,48c-0.153,0 -0.306,-0.035 -0.447,-0.105l-12,-6c-0.494,-0.247 -0.694,-0.848 -0.447,-1.342c0.247,-0.493 0.847,-0.692 1.342,-0.447l10.552,5.276v-28.382c0,-0.553 0.448,-1 1,-1c0.552,0 1,0.447 1,1v30c0,0.347 -0.18,0.668 -0.474,0.851c-0.161,0.099 -0.343,0.149 -0.526,0.149z" fill="#08243b"></path><g fill="#08243b"><path d="M6,48c-0.177,0 -0.354,-0.047 -0.51,-0.14c-0.304,-0.18 -0.49,-0.507 -0.49,-0.86v-30c0,-0.553 0.448,-1 1,-1c0.552,0 1,0.447 1,1v28.315l9.521,-5.193c0.487,-0.264 1.093,-0.085 1.357,0.399c0.265,0.484 0.086,1.092 -0.399,1.356l-11,6c-0.149,0.082 -0.314,0.123 -0.479,0.123z"></path></g><g fill="#08243b"><path d="M31.999,63c-0.169,0 -0.341,-0.043 -0.499,-0.134l-26,-15c-0.478,-0.276 -0.642,-0.887 -0.366,-1.366c0.276,-0.478 0.887,-0.643 1.366,-0.366l26,15c0.479,0.276 0.643,0.888 0.367,1.366c-0.186,0.32 -0.522,0.5 -0.868,0.5z"></path></g></g></g></svg>